<?xml version="1.0" encoding="iso-8859-1"?>
<!-- Generator: Adobe Illustrator 19.0.0, SVG Export Plug-In . SVG Version: 6.00 Build 0)  -->
<svg version="1.1" id="Capa_1" xmlns="http://www.w3.org/2000/svg" xmlns:xlink="http://www.w3.org/1999/xlink" x="0px" y="0px"
	 viewBox="0 0 511.992 511.992" style="enable-background:new 0 0 511.992 511.992;" xml:space="preserve">
<polygon style="fill:#939598;" points="79.459,415.723 79.459,499.79 432.539,499.79 432.539,415.723 390.506,415.723 
	121.492,415.723 "/>
<path style="fill:#ED1C24;" d="M255.999,197.149c-74.29,0-134.507,60.217-134.507,134.507v84.067h269.014v-84.067
	C390.506,257.366,330.28,197.149,255.999,197.149z M255.999,230.776c55.686,0.059,100.821,45.194,100.88,100.88
	C356.82,275.962,311.685,230.835,255.999,230.776z"/>
<g>
	<path style="fill:#231F20;" d="M255.999,155.116c-4.64,0-8.407-3.766-8.407-8.407V12.203c0-4.64,3.766-8.407,8.407-8.407
		s8.407,3.766,8.407,8.407v134.507C264.405,151.35,260.639,155.116,255.999,155.116z"/>
	<path style="fill:#231F20;" d="M180.339,175.393c-3.01,0-5.784-1.597-7.289-4.203L105.797,54.698c-2.345-4.002-1-9.155,3.001-11.5
		c4.002-2.345,9.155-1,11.5,3.001c0.017,0.034,0.034,0.067,0.059,0.092l67.253,116.491c2.32,4.018,0.942,9.163-3.077,11.484
		C183.256,175.006,181.81,175.393,180.339,175.393z"/>
	<path style="fill:#231F20;" d="M124.939,230.776c-1.48,0-2.926-0.387-4.203-1.126L4.253,162.396
		c-4.035-2.295-5.448-7.423-3.153-11.467c2.295-4.044,7.423-5.448,11.467-3.153c0.034,0.017,0.067,0.034,0.092,0.059l116.483,67.253
		c4.018,2.32,5.397,7.465,3.077,11.484C130.714,229.17,127.94,230.776,124.939,230.776z"/>
	<path style="fill:#231F20;" d="M387.059,230.776c-4.64,0-8.407-3.766-8.407-8.407c0-3.001,1.606-5.775,4.203-7.28l116.483-67.253
		c4.002-2.345,9.155-1,11.5,3.001c2.345,4.002,1,9.155-3.001,11.5c-0.034,0.017-0.067,0.034-0.092,0.059L391.262,229.65
		C389.984,230.389,388.53,230.776,387.059,230.776z"/>
	<path style="fill:#231F20;" d="M331.659,175.393c-4.64-0.008-8.407-3.775-8.398-8.415c0-1.471,0.387-2.917,1.126-4.195
		L391.64,46.292c2.345-4.002,7.499-5.347,11.5-3.001c3.968,2.329,5.33,7.406,3.06,11.408L338.947,171.19
		C337.443,173.796,334.668,175.393,331.659,175.393z"/>
	<path style="fill:#231F20;" d="M432.539,407.316h-33.627v-75.66c0-78.93-63.983-142.913-142.913-142.913
		s-142.913,63.983-142.913,142.913v75.66H79.459c-4.64,0-8.407,3.766-8.407,8.407v84.067c0,4.64,3.766,8.407,8.407,8.407h353.08
		c4.64,0,8.407-3.766,8.407-8.407v-84.067C440.946,411.082,437.179,407.316,432.539,407.316z M129.899,331.656
		c0-69.641,56.459-126.1,126.1-126.1s126.1,56.459,126.1,126.1v75.66h-252.2V331.656z M424.132,491.383H87.865V424.13h336.267
		V491.383z"/>
	<path style="fill:#231F20;" d="M356.879,340.063c-4.64,0-8.407-3.766-8.407-8.407c-0.059-51.045-41.428-92.415-92.473-92.473
		c-4.64,0-8.407-3.766-8.407-8.407c0-4.64,3.766-8.407,8.407-8.407c60.326,0.067,109.219,48.96,109.287,109.287
		C365.286,336.297,361.519,340.063,356.879,340.063z"/>
</g>
<g>
</g>
<g>
</g>
<g>
</g>
<g>
</g>
<g>
</g>
<g>
</g>
<g>
</g>
<g>
</g>
<g>
</g>
<g>
</g>
<g>
</g>
<g>
</g>
<g>
</g>
<g>
</g>
<g>
</g>
</svg>
