<?xml version="1.0" encoding="iso-8859-1"?>
<!-- Generator: Adobe Illustrator 19.0.0, SVG Export Plug-In . SVG Version: 6.00 Build 0)  -->
<svg version="1.1" id="Capa_1" xmlns="http://www.w3.org/2000/svg" xmlns:xlink="http://www.w3.org/1999/xlink" x="0px" y="0px"
	 viewBox="0 0 512 512" style="enable-background:new 0 0 512 512;" xml:space="preserve">
<path style="fill:#FF9811;" d="M187.733,213.172v34.133h34.133c9.429,0,17.067,7.637,17.067,17.067v8.533
	c0,9.429,7.637,17.067,17.067,17.067c9.429,0,17.067-7.637,17.067-17.067v-8.533c0-9.429,7.637-17.067,17.067-17.067h34.133v-34.133
	L187.733,213.172L187.733,213.172z"/>
<g>
	<path style="fill:#FFDA44;" d="M273.067,264.372v8.533c0,9.429-7.637,17.067-17.067,17.067c-9.429,0-17.067-7.637-17.067-17.067
		v-8.533c0-9.429-7.637-17.067-17.067-17.067h-34.133v256h136.533v-256h-34.133C280.704,247.306,273.067,254.952,273.067,264.372z"
		/>
	<path style="fill:#FFDA44;" d="M85.333,315.572v8.533c0,9.429-7.637,17.067-17.067,17.067S51.2,333.535,51.2,324.106v-8.533
		c0-9.429-7.637-17.067-17.067-17.067h-25.6v204.8h136.533v-204.8H102.4C92.971,298.506,85.333,306.152,85.333,315.572z"/>
</g>
<path style="fill:#FF9811;" d="M8.533,264.372v34.133h25.6c9.429,0,17.067,7.637,17.067,17.067v8.533
	c0,9.429,7.637,17.067,17.067,17.067s17.067-7.637,17.067-17.067v-8.533c0-9.429,7.637-17.067,17.067-17.067h42.667v-34.133
	L8.533,264.372L8.533,264.372z"/>
<path style="fill:#FF5023;" d="M128,179.039c0-28.279-51.2-119.467-51.2-119.467S25.6,150.76,25.6,179.039s22.921,51.2,51.2,51.2
	l0,0C105.079,230.239,128,207.319,128,179.039z"/>
<path style="fill:#FFDA44;" d="M460.8,315.572v8.533c0,9.429-7.637,17.067-17.067,17.067c-9.429,0-17.067-7.637-17.067-17.067
	v-8.533c0-9.429-7.637-17.067-17.067-17.067h-42.667v204.8h136.533v-204.8h-25.6C468.437,298.506,460.8,306.152,460.8,315.572z"/>
<path style="fill:#FF9811;" d="M366.933,264.372v34.133H409.6c9.429,0,17.067,7.637,17.067,17.067v8.533
	c0,9.429,7.637,17.067,17.067,17.067c9.429,0,17.067-7.637,17.067-17.067v-8.533c0-9.429,7.637-17.067,17.067-17.067h25.6v-34.133
	L366.933,264.372L366.933,264.372z"/>
<g>
	<path style="fill:#FF5023;" d="M486.4,179.039c0-28.279-51.2-119.467-51.2-119.467S384,150.76,384,179.039s22.921,51.2,51.2,51.2
		l0,0C463.479,230.239,486.4,207.319,486.4,179.039z"/>
	<path style="fill:#FF5023;" d="M307.2,127.839C307.2,99.56,256,8.372,256,8.372s-51.2,91.187-51.2,119.467s22.921,51.2,51.2,51.2
		l0,0C284.279,179.039,307.2,156.119,307.2,127.839z"/>
</g>
<path d="M324.267,204.639h-59.733V186.89c29.363-4.241,51.166-29.38,51.2-59.051c0-29.653-46.933-114.108-52.292-123.639
	c-2.671-4.113-8.166-5.274-12.279-2.603c-1.041,0.674-1.929,1.562-2.603,2.603c-5.359,9.532-52.292,93.986-52.292,123.639
	c0.034,29.67,21.837,54.81,51.2,59.051v17.749h-59.733c-4.71,0-8.533,3.823-8.533,8.533v290.133c0,4.71,3.823,8.533,8.533,8.533
	h136.533c4.71,0,8.533-3.823,8.533-8.533V213.172C332.8,208.462,328.977,204.639,324.267,204.639z M213.333,127.839
	c0-16.862,23.339-65.809,42.667-101.743c19.328,35.925,42.667,84.873,42.667,101.743c-0.026,20.267-14.285,37.734-34.133,41.813
	v-41.813c0-4.71-3.823-8.533-8.533-8.533c-4.71,0-8.533,3.823-8.533,8.533v41.813C227.618,165.574,213.359,148.106,213.333,127.839z
	 M315.733,221.706v17.067h-25.6c-14.14,0-25.6,11.46-25.6,25.6v8.533c0,4.71-3.823,8.533-8.533,8.533
	c-4.71,0-8.533-3.823-8.533-8.533v-8.533c0-14.14-11.46-25.6-25.6-25.6h-25.6v-17.067L315.733,221.706L315.733,221.706z
	 M196.267,494.772V255.839h25.6c4.71,0,8.533,3.823,8.533,8.533v8.533c0,14.14,11.46,25.6,25.6,25.6c14.14,0,25.6-11.46,25.6-25.6
	v-8.533c0-4.71,3.823-8.533,8.533-8.533h25.6v238.933H196.267z"/>
<path d="M145.067,255.839H85.333V238.09c29.363-4.241,51.166-29.38,51.2-59.051c0-29.653-46.933-114.108-52.292-123.639
	c-2.671-4.105-8.166-5.274-12.279-2.603c-1.041,0.674-1.929,1.562-2.603,2.603C64,64.931,17.067,149.386,17.067,179.039
	c0.034,29.67,21.837,54.81,51.2,59.051v17.749H8.533c-4.71,0-8.533,3.823-8.533,8.533v238.933c0,4.71,3.823,8.533,8.533,8.533
	h136.533c4.71,0,8.533-3.823,8.533-8.533V264.372C153.6,259.662,149.777,255.839,145.067,255.839z M34.133,179.039
	c0-16.862,23.339-65.809,42.667-101.743c19.328,35.925,42.667,84.873,42.667,101.743c-0.026,20.267-14.285,37.734-34.133,41.813
	v-41.813c0-4.71-3.823-8.533-8.533-8.533s-8.533,3.823-8.533,8.533v41.813C48.418,216.774,34.159,199.306,34.133,179.039z
	 M136.533,272.906v17.067H102.4c-14.14,0-25.6,11.46-25.6,25.6v8.533c0,4.71-3.823,8.533-8.533,8.533s-8.533-3.823-8.533-8.533
	v-8.533c0-14.14-11.46-25.6-25.6-25.6H17.067v-17.067H136.533L136.533,272.906z M17.067,494.772V307.039h17.067
	c4.71,0,8.533,3.823,8.533,8.533v8.533c0,14.14,11.46,25.6,25.6,25.6s25.6-11.46,25.6-25.6v-8.533c0-4.71,3.823-8.533,8.533-8.533
	h34.133v187.733H17.067z"/>
<path d="M503.467,255.839h-59.733V238.09c29.363-4.241,51.166-29.38,51.2-59.051c0-29.653-46.933-114.108-52.292-123.639
	c-2.671-4.113-8.166-5.274-12.279-2.603c-1.041,0.674-1.929,1.562-2.603,2.603c-5.359,9.532-52.292,93.986-52.292,123.639
	c0.034,29.67,21.837,54.81,51.2,59.051v17.749h-59.733c-4.71,0-8.533,3.823-8.533,8.533v238.933c0,4.71,3.823,8.533,8.533,8.533
	h136.533c4.71,0,8.533-3.823,8.533-8.533V264.372C512,259.662,508.177,255.839,503.467,255.839z M392.533,179.039
	c0-16.862,23.339-65.809,42.667-101.743c19.328,35.925,42.667,84.873,42.667,101.743c-0.026,20.267-14.285,37.734-34.133,41.813
	v-41.813c0-4.71-3.823-8.533-8.533-8.533s-8.533,3.823-8.533,8.533v41.813C406.818,216.774,392.559,199.306,392.533,179.039z
	 M494.933,272.906v17.067h-17.067c-14.14,0-25.6,11.46-25.6,25.6v8.533c0,4.71-3.823,8.533-8.533,8.533
	c-4.71,0-8.533-3.823-8.533-8.533v-8.533c0-14.14-11.46-25.6-25.6-25.6h-34.133v-17.067H494.933L494.933,272.906z M375.467,494.772
	V307.039H409.6c4.71,0,8.533,3.823,8.533,8.533v8.533c0,14.14,11.46,25.6,25.6,25.6c14.14,0,25.6-11.46,25.6-25.6v-8.533
	c0-4.71,3.823-8.533,8.533-8.533h17.067v187.733H375.467z"/>
<g>
</g>
<g>
</g>
<g>
</g>
<g>
</g>
<g>
</g>
<g>
</g>
<g>
</g>
<g>
</g>
<g>
</g>
<g>
</g>
<g>
</g>
<g>
</g>
<g>
</g>
<g>
</g>
<g>
</g>
</svg>
