<?xml version="1.0" encoding="iso-8859-1"?>
<!-- Generator: Adobe Illustrator 19.0.0, SVG Export Plug-In . SVG Version: 6.00 Build 0)  -->
<svg version="1.1" id="Capa_1" xmlns="http://www.w3.org/2000/svg" xmlns:xlink="http://www.w3.org/1999/xlink" x="0px" y="0px"
	 viewBox="0 0 512.004 512.004" style="enable-background:new 0 0 512.004 512.004;" xml:space="preserve">
<path style="fill:#FFDA44;" d="M330.921,68.29c-9.446-41.376-50.651-67.256-92.027-57.81c-28.773,6.57-51.24,29.037-57.81,57.81
	H330.921z"/>
<rect x="213.321" y="68.265" style="fill:#FFAF46;" width="85.329" height="85.329"/>
<polygon style="fill:#78B9EB;" points="204.805,153.619 153.607,477.87 187.739,503.468 204.805,503.468 230.404,477.87 
	247.469,469.337 273.068,469.337 290.134,486.403 307.2,503.468 324.265,503.468 341.331,494.936 358.397,477.87 307.2,153.619 "/>
<g>
	<path style="fill:#231F20;" d="M503.457,460.804c-14.847,0.427-28.645,7.773-37.272,19.865
		c-7.227,7.97-12.936,14.267-24.626,14.267c-11.69,0-17.407-6.297-24.643-14.267c-8.627-12.091-22.416-19.446-37.263-19.865
		c-6.511-0.094-12.953,1.391-18.772,4.309l-43.825-302.961h15.743c4.71,0,8.533-3.823,8.533-8.533s-3.823-8.533-8.533-8.533H307.2
		V76.823h23.73c0.631,0,1.254-0.077,1.869-0.213c0.256-0.06,0.444-0.23,0.683-0.307c0.546-0.179,1.075-0.418,1.57-0.708
		c0.469-0.239,0.904-0.521,1.314-0.853c0.41-0.35,0.776-0.742,1.109-1.169c0.341-0.418,0.648-0.87,0.904-1.348
		c0.239-0.469,0.427-0.964,0.572-1.468c0.171-0.555,0.29-1.126,0.341-1.707c0.068-0.247,0.119-0.503,0.162-0.759
		c-0.043-0.307-0.102-0.614-0.179-0.922c0.017-0.324,0.017-0.64,0-0.964C328.779,20.429,283-8.335,237.025,2.16
		c-31.973,7.296-56.94,32.271-64.244,64.244c-0.017,0.324-0.017,0.64,0,0.964c-0.094,0.299-0.171,0.614-0.23,0.922
		c0.034,0.247,0.085,0.486,0.145,0.725c0.051,0.58,0.171,1.152,0.341,1.707c0.145,0.503,0.333,0.998,0.572,1.468
		c0.256,0.478,0.563,0.93,0.904,1.348c0.333,0.427,0.7,0.819,1.109,1.169c0.41,0.324,0.845,0.614,1.314,0.853
		c0.495,0.29,1.024,0.529,1.57,0.708c0.239,0.077,0.427,0.247,0.683,0.307c0.316,0.017,0.631,0.017,0.947,0
		c0.307,0.102,0.623,0.179,0.947,0.247h23.721v68.263h-25.599c-4.71,0-8.533,3.823-8.533,8.533s3.823,8.533,8.533,8.533h15.743
		l-43.902,303.021c-5.837-2.944-12.287-4.446-18.824-4.369c-14.839,0.418-28.628,7.782-37.238,19.873
		c-7.219,7.961-12.919,14.258-24.6,14.258s-17.373-6.289-24.592-14.258c-8.618-12.091-22.399-19.447-37.246-19.873
		c-4.71,0-8.533,3.823-8.533,8.533c0,4.71,3.823,8.533,8.533,8.533c11.682,0,17.382,6.297,24.6,14.258
		c8.61,12.091,22.399,19.455,37.238,19.873c14.847-0.427,28.628-7.782,37.246-19.873c7.219-7.97,12.919-14.258,24.592-14.258
		s17.382,6.297,24.6,14.258c8.61,12.091,22.399,19.455,37.238,19.873c14.847-0.418,28.636-7.782,37.255-19.873
		c7.219-7.97,12.927-14.258,24.6-14.258c11.673,0,17.39,6.297,24.617,14.258c13.806,20.581,41.675,26.068,62.256,12.262
		c4.847-3.251,9.011-7.415,12.262-12.262c7.219-7.97,12.927-14.258,24.6-14.258c11.673,0,17.399,6.297,24.626,14.258
		c13.823,20.59,41.717,26.068,62.307,12.245c4.838-3.251,8.994-7.407,12.245-12.245c7.227-7.961,12.936-14.258,24.626-14.258
		c4.71,0,8.533-3.823,8.533-8.533C511.989,464.627,508.167,460.804,503.457,460.804z M188.72,324.277h134.564l7.407,51.197H181.314
		L188.72,324.277z M198.601,256.014h114.802l7.407,51.197H191.195L198.601,256.014z M256.002,17.093
		c27.766,0.162,52.725,16.98,63.289,42.665H192.714C203.277,34.073,228.228,17.255,256.002,17.093z M221.871,76.823h68.263v68.263
		h-68.263L221.871,76.823L221.871,76.823z M213.338,162.152h86.481l11.093,76.796H201.076l11.093-76.796H213.338z M317.798,494.936
		c-11.69,0-17.39-6.297-24.617-14.258c-13.798-20.573-41.666-26.068-62.239-12.27c-4.847,3.251-9.019,7.424-12.27,12.27
		c-7.219,7.961-12.927,14.258-24.609,14.258s-17.373-6.289-24.592-14.258c-0.939-1.041-1.911-2.116-2.918-3.191l12.304-85.013
		c0.119,0,0.222,0.068,0.35,0.068h153.592c0.128,0,0.23-0.068,0.35-0.068l12.287,84.894c-1.041,1.118-2.056,2.227-3.029,3.302
		C335.188,488.638,329.479,494.936,317.798,494.936z"/>
	<path style="fill:#231F20;" d="M366.93,110.955c0,4.71,3.823,8.533,8.533,8.533h102.395c4.71,0,8.533-3.823,8.533-8.533
		c0-4.71-3.823-8.533-8.533-8.533H375.463C370.744,102.422,366.93,106.245,366.93,110.955z"/>
	<path style="fill:#231F20;" d="M367.468,89.623c1.502,0,2.969-0.393,4.266-1.143l88.674-51.197
		c4.062-2.381,5.427-7.611,3.046-11.673c-2.364-4.028-7.518-5.41-11.579-3.106L363.201,73.7c-4.079,2.355-5.478,7.577-3.123,11.656
		C361.597,87.993,364.413,89.623,367.468,89.623z"/>
	<path style="fill:#231F20;" d="M363.193,148.209l88.674,51.197c4.096,2.329,9.309,0.896,11.639-3.2
		c2.304-4.062,0.922-9.216-3.106-11.579l-88.674-51.197c-4.062-2.381-9.292-1.015-11.673,3.046
		c-2.381,4.062-1.015,9.292,3.046,11.673C363.124,148.175,363.158,148.192,363.193,148.209z"/>
	<path style="fill:#231F20;" d="M136.542,119.488H34.147c-4.71,0-8.533-3.823-8.533-8.533c0-4.71,3.823-8.533,8.533-8.533h102.395
		c4.71,0,8.533,3.823,8.533,8.533C145.074,115.665,141.252,119.488,136.542,119.488z"/>
	<path style="fill:#231F20;" d="M144.537,89.623c-1.502,0-2.969-0.393-4.266-1.143L51.605,37.282
		c-4.096-2.329-5.529-7.535-3.2-11.639c2.329-4.104,7.535-5.529,11.63-3.2c0.034,0.026,0.068,0.043,0.102,0.06L148.803,73.7
		c4.079,2.355,5.478,7.577,3.123,11.656C150.399,87.993,147.583,89.623,144.537,89.623z"/>
	<path style="fill:#231F20;" d="M55.88,200.55c-4.71,0-8.533-3.823-8.533-8.533c0-3.046,1.63-5.862,4.266-7.389l88.665-51.197
		c4.062-2.381,9.292-1.015,11.673,3.046c2.381,4.062,1.015,9.292-3.046,11.673c-0.034,0.017-0.068,0.034-0.094,0.06l-88.665,51.197
		C58.849,200.158,57.373,200.55,55.88,200.55z"/>
</g>
<g>
</g>
<g>
</g>
<g>
</g>
<g>
</g>
<g>
</g>
<g>
</g>
<g>
</g>
<g>
</g>
<g>
</g>
<g>
</g>
<g>
</g>
<g>
</g>
<g>
</g>
<g>
</g>
<g>
</g>
</svg>
