<?xml version="1.0" encoding="iso-8859-1"?>
<!-- Generator: Adobe Illustrator 19.0.0, SVG Export Plug-In . SVG Version: 6.00 Build 0)  -->
<svg version="1.1" id="Capa_1" xmlns="http://www.w3.org/2000/svg" xmlns:xlink="http://www.w3.org/1999/xlink" x="0px" y="0px"
	 viewBox="0 0 512 512" style="enable-background:new 0 0 512 512;" xml:space="preserve">
<g>
	<path style="fill:#E6E7E8;" d="M239.136,267.476H53.635v202.365c0,18.626,15.101,33.727,33.727,33.727h185.501
		c18.626,0,33.727-15.101,33.727-33.727V267.476H239.136z"/>
	<path style="fill:#E6E7E8;" d="M424.637,31.383H306.591v236.092h118.046c18.626,0,33.727-15.101,33.727-33.727V65.111
		C458.365,46.485,443.263,31.383,424.637,31.383z"/>
</g>
<path style="fill:#ACABB1;" d="M239.136,157.861H121.09v109.614h118.046V157.861z M154.818,242.18c-4.654,0-8.432-3.777-8.432-8.432
	s3.777-8.432,8.432-8.432c4.654,0,8.432,3.777,8.432,8.432S159.472,242.18,154.818,242.18z M154.818,200.021
	c-4.654,0-8.432-3.777-8.432-8.432s3.777-8.432,8.432-8.432c4.654,0,8.432,3.777,8.432,8.432S159.472,200.021,154.818,200.021z
	 M205.409,242.18c-4.654,0-8.432-3.777-8.432-8.432s3.777-8.432,8.432-8.432c4.654,0,8.432,3.777,8.432,8.432
	S210.063,242.18,205.409,242.18z M205.409,200.021c-4.654,0-8.432-3.777-8.432-8.432s3.777-8.432,8.432-8.432
	c4.654,0,8.432,3.777,8.432,8.432S210.063,200.021,205.409,200.021z"/>
<path style="fill:#E6E7E8;" d="M112.658,174.725c-27.909,0-50.591,15.093-50.591,33.727s22.682,33.727,50.591,33.727
	c2.816,0.008,5.632-0.16,8.432-0.506v-66.443C118.291,174.885,115.474,174.717,112.658,174.725z M95.794,216.885
	c-4.654,0-8.432-3.777-8.432-8.432s3.777-8.432,8.432-8.432c4.654,0,8.432,3.777,8.432,8.432S100.449,216.885,95.794,216.885z"/>
<g>
	<circle style="fill:#FFDA44;" cx="95.794" cy="208.453" r="8.432"/>
	<circle style="fill:#FFDA44;" cx="154.818" cy="191.589" r="8.432"/>
	<circle style="fill:#FFDA44;" cx="205.409" cy="191.589" r="8.432"/>
	<circle style="fill:#FFDA44;" cx="205.409" cy="233.748" r="8.432"/>
	<circle style="fill:#FFDA44;" cx="154.818" cy="233.748" r="8.432"/>
</g>
<path style="fill:#FF7754;" d="M146.386,124.134l13.491-10.118c11.99-8.997,28.483-8.997,40.473,0l13.491,10.118l2.681-16.021
	c3.685-22.032-1.526-44.621-14.486-62.817L180.113,14.52l-21.855,30.599c-13.002,18.196-18.238,40.819-14.562,62.876
	L146.386,124.134z"/>
<g>
	<path style="fill:#231F20;" d="M424.637,22.952H306.591c-4.654,0-8.432,3.777-8.432,8.432v186.26
		c-21.189,3.617-37.783,20.211-41.4,41.4h-9.191V157.861c0-4.654-3.777-8.432-8.432-8.432H121.09c-4.654,0-8.432,3.777-8.432,8.432
		v8.432c-33.095,0-59.023,18.55-59.023,42.159s25.928,42.159,59.023,42.159v8.432H53.635c-4.654,0-8.432,3.777-8.432,8.432v202.365
		c0.025,23.272,18.887,42.134,42.159,42.159h185.501c23.272-0.025,42.134-18.887,42.159-42.159V275.908h109.614
		c23.272-0.025,42.134-18.887,42.159-42.159V65.111C466.771,41.839,447.909,22.977,424.637,22.952z M298.159,234.946v24.098h-24.098
		C277.147,247.248,286.363,238.032,298.159,234.946z M70.499,208.453c0-13.71,19.309-25.296,42.159-25.296v50.591
		C89.808,233.748,70.499,222.163,70.499,208.453z M129.522,166.293h101.182v92.751H129.522V166.293z M298.159,469.841
		c0,13.972-11.324,25.296-25.296,25.296H87.363c-13.972,0-25.296-11.324-25.296-25.296V275.908h236.092V469.841z M449.933,233.748
		c0,13.972-11.324,25.296-25.296,25.296l0,0H315.023V39.815h109.614c13.972,0,25.296,11.324,25.296,25.296V233.748z"/>
	<circle style="fill:#231F20;" cx="95.794" cy="208.453" r="16.864"/>
	<circle style="fill:#231F20;" cx="154.818" cy="191.589" r="16.864"/>
	<circle style="fill:#231F20;" cx="205.409" cy="191.589" r="16.864"/>
	<circle style="fill:#231F20;" cx="205.409" cy="233.748" r="16.864"/>
	<circle style="fill:#231F20;" cx="154.818" cy="233.748" r="16.864"/>
	<path style="fill:#231F20;" d="M140.348,139.202l24.587-18.44c9.014-6.695,21.341-6.695,30.355,0l24.579,18.44l4.966-29.689
		c4.132-24.25-1.61-49.149-15.936-69.141L180.113,0l-28.727,40.22c-14.359,19.984-20.127,44.883-16.021,69.141L140.348,139.202z
		 M165.121,50.018l14.992-20.978l15.051,21.147c11.712,16.358,16.408,36.712,13.036,56.544l-0.388,2.336l-2.403-1.796
		c-15.009-11.172-35.582-11.172-50.591,0l-2.395,1.796l-0.413-2.462C148.645,86.747,153.367,66.376,165.121,50.018z"/>
</g>
<g>
</g>
<g>
</g>
<g>
</g>
<g>
</g>
<g>
</g>
<g>
</g>
<g>
</g>
<g>
</g>
<g>
</g>
<g>
</g>
<g>
</g>
<g>
</g>
<g>
</g>
<g>
</g>
<g>
</g>
</svg>
