<?xml version="1.0" encoding="iso-8859-1"?>
<!-- Generator: Adobe Illustrator 19.0.0, SVG Export Plug-In . SVG Version: 6.00 Build 0)  -->
<svg version="1.1" id="Capa_1" xmlns="http://www.w3.org/2000/svg" xmlns:xlink="http://www.w3.org/1999/xlink" x="0px" y="0px"
	 viewBox="0 0 512 512" style="enable-background:new 0 0 512 512;" xml:space="preserve">
<g>
	<path style="fill:#939598;" d="M324.267,162.133V128c0,0-128,0.265-136.533,0v34.133H324.267z"/>
	<path style="fill:#939598;" d="M324.267,93.867V76.8c0-37.7-30.566-68.267-68.267-68.267S187.733,39.1,187.733,76.8v17.067
		C196.267,94.131,324.267,93.867,324.267,93.867z M315.733,59.733c0,0-110.933,0.265-119.467,0
		C204.8,59.998,315.733,59.733,315.733,59.733z"/>
	<path style="fill:#939598;" d="M324.267,128V93.867c0,0-128,0.265-136.533,0V128C196.267,128.265,324.267,128,324.267,128z"/>
</g>
<path style="fill:#78B9EB;" d="M315.733,162.133H196.267c-75.409,0-136.533,61.124-136.533,136.533V384
	c0,9.429,7.637,17.067,17.067,17.067h358.4c9.429,0,17.067-7.637,17.067-17.067v-85.333
	C452.267,223.258,391.142,162.133,315.733,162.133z"/>
<path style="fill:#AED5F3;" d="M256,503.467c85.077,0,156.245-43.776,174.507-102.4H81.493
	C99.755,459.691,170.923,503.467,256,503.467z M365.38,435.2c-17.323,13.073-37.111,22.494-58.18,27.691
	C328.269,457.694,348.058,448.273,365.38,435.2z M256,469.333c5.854,0,11.639-0.239,17.348-0.717
	C267.639,469.094,261.862,469.333,256,469.333c-39.202,0.819-77.602-11.162-109.38-34.133
	C178.398,458.172,216.798,470.153,256,469.333z"/>
<path d="M332.8,154.692V76.8C332.8,34.381,298.419,0,256,0s-76.8,34.381-76.8,76.8v77.892c-72.943,8.713-127.889,70.519-128,143.974
	V384c0.051,13.611,10.735,24.798,24.329,25.472C98.133,470.11,171.076,512,256,512s157.909-41.89,180.471-102.528
	c13.594-0.674,24.277-11.861,24.329-25.472v-85.333C460.689,225.212,405.743,163.405,332.8,154.692z M315.733,76.8v8.533
	c-38.4,0.077-97.553,0.162-119.467,0.06V76.8c0.026-2.859,0.247-5.709,0.683-8.533c4.267,0.077,111.855,0,118.101,0
	C315.477,71.091,315.708,73.941,315.733,76.8z M196.267,102.477c7.356,0,102.11,0,119.467-0.06v17.067
	c-38.4,0.077-97.553,0.162-119.467,0.06V102.477z M256,17.067c23.049,0.026,44.023,13.312,53.897,34.133
	c-34.296,0.085-89.6,0.171-107.819,0.051C211.942,30.404,232.934,17.092,256,17.067z M196.267,136.61c7.356,0,102.11,0,119.467-0.06
	v17.067H196.267V136.61z M256,494.933c-73.668,0-139.494-35.268-162.133-85.333h324.267
	C395.494,459.665,329.668,494.933,256,494.933z M443.733,384c0,4.71-3.823,8.533-8.533,8.533H76.8c-4.71,0-8.533-3.823-8.533-8.533
	v-85.333c0.077-70.656,57.344-127.923,128-128h119.467c70.656,0.077,127.923,57.344,128,128V384z"/>
<path d="M256,477.867c6.033,0,12.109-0.247,18.057-0.751c4.685-0.546,8.03-4.787,7.484-9.463c-0.521-4.463-4.412-7.757-8.9-7.535
	c-5.478,0.452-11.093,0.683-16.64,0.683c-37.291,0.819-73.839-10.53-104.107-32.324c-3.755-2.85-9.105-2.108-11.955,1.647
	c-2.79,3.678-2.142,8.909,1.451,11.802C174.669,466.057,214.903,478.669,256,477.867z"/>
<path d="M307.2,471.415c0.725,0,1.451-0.094,2.15-0.273c22.195-5.504,43.042-15.437,61.286-29.218
	c3.712-2.91,4.369-8.277,1.459-11.989c-2.91-3.712-8.277-4.369-11.989-1.459c-16.41,12.348-35.14,21.239-55.083,26.146
	c-4.565,1.186-7.305,5.837-6.118,10.402C299.887,468.796,303.3,471.433,307.2,471.415z"/>
<path d="M256,324.267c-4.71,0-8.533,3.823-8.533,8.533v34.133c0,4.71,3.823,8.533,8.533,8.533c4.71,0,8.533-3.823,8.533-8.533V332.8
	C264.533,328.09,260.71,324.267,256,324.267z"/>
<path d="M307.2,324.267c-4.71,0-8.533,3.823-8.533,8.533v34.133c0,4.71,3.823,8.533,8.533,8.533s8.533-3.823,8.533-8.533V332.8
	C315.733,328.09,311.91,324.267,307.2,324.267z"/>
<path d="M358.4,324.267c-4.71,0-8.533,3.823-8.533,8.533v34.133c0,4.71,3.823,8.533,8.533,8.533s8.533-3.823,8.533-8.533V332.8
	C366.933,328.09,363.11,324.267,358.4,324.267z"/>
<path d="M401.067,332.8v34.133c0,4.71,3.823,8.533,8.533,8.533c4.71,0,8.533-3.823,8.533-8.533V332.8
	c0-4.71-3.823-8.533-8.533-8.533C404.89,324.267,401.067,328.09,401.067,332.8z"/>
<path d="M204.8,324.267c-4.71,0-8.533,3.823-8.533,8.533v34.133c0,4.71,3.823,8.533,8.533,8.533c4.71,0,8.533-3.823,8.533-8.533
	V332.8C213.333,328.09,209.51,324.267,204.8,324.267z"/>
<path d="M153.6,324.267c-4.71,0-8.533,3.823-8.533,8.533v34.133c0,4.71,3.823,8.533,8.533,8.533s8.533-3.823,8.533-8.533V332.8
	C162.133,328.09,158.31,324.267,153.6,324.267z"/>
<path d="M102.4,324.267c-4.71,0-8.533,3.823-8.533,8.533v34.133c0,4.71,3.823,8.533,8.533,8.533c4.71,0,8.533-3.823,8.533-8.533
	V332.8C110.933,328.09,107.11,324.267,102.4,324.267z"/>
<g>
</g>
<g>
</g>
<g>
</g>
<g>
</g>
<g>
</g>
<g>
</g>
<g>
</g>
<g>
</g>
<g>
</g>
<g>
</g>
<g>
</g>
<g>
</g>
<g>
</g>
<g>
</g>
<g>
</g>
</svg>
