<?xml version="1.0" encoding="iso-8859-1"?>
<!-- Generator: Adobe Illustrator 19.0.0, SVG Export Plug-In . SVG Version: 6.00 Build 0)  -->
<svg version="1.1" id="Capa_1" xmlns="http://www.w3.org/2000/svg" xmlns:xlink="http://www.w3.org/1999/xlink" x="0px" y="0px"
	 viewBox="0 0 512 512" style="enable-background:new 0 0 512 512;" xml:space="preserve">
<path style="fill:#ACABB1;" d="M273.067,273.067h-102.4c-9.412,0.026-17.041,7.654-17.067,17.067V307.2
	c0.009,27.827,16.879,52.864,42.667,63.317c2.773,1.126,5.623,2.039,8.533,2.731c5.572,1.476,11.307,2.219,17.067,2.219h68.267
	c5.76,0,11.494-0.742,17.067-2.219c2.91-0.691,5.76-1.604,8.533-2.731c25.788-10.453,42.658-35.49,42.667-63.317v-17.067
	c-0.026-9.412-7.654-17.041-17.067-17.067H273.067z"/>
<g>
	<path style="fill:#58595B;" d="M204.8,460.8c0,9.429,7.637,17.067,17.067,17.067h68.267c9.429,0,17.067-7.637,17.067-17.067
		s-7.637-17.067-17.067-17.067h-68.267C212.437,443.733,204.8,451.371,204.8,460.8z"/>
	<path style="fill:#58595B;" d="M204.8,426.667c0,9.429,7.637,17.067,17.067,17.067h68.267c9.429,0,17.067-7.637,17.067-17.067
		s-7.637-17.067-17.067-17.067h-68.267C212.437,409.6,204.8,417.237,204.8,426.667z"/>
	<path style="fill:#58595B;" d="M221.867,375.467c-5.76,0-11.494-0.742-17.067-2.219v19.285c0.026,9.412,7.654,17.041,17.067,17.067
		h68.267c9.412-0.026,17.041-7.654,17.067-17.067v-19.285c-5.572,1.476-11.307,2.219-17.067,2.219H221.867z"/>
</g>
<path style="fill:#ACABB1;" d="M230.4,486.4c0,9.429,7.637,17.067,17.067,17.067h17.067c9.429,0,17.067-7.637,17.067-17.067v-8.533
	h-51.2V486.4z"/>
<g>
	<path style="fill:#78B9EB;" d="M238.933,102.4c0-9.429,7.637-17.067,17.067-17.067c9.429,0,17.067,7.637,17.067,17.067v170.667
		H307.2v-179.2c0-28.279-22.921-51.2-51.2-51.2c-28.279,0-51.2,22.921-51.2,51.2v179.2h34.133V102.4z"/>
	<path style="fill:#78B9EB;" d="M256,8.533c-47.13,0-85.333,38.204-85.333,85.333v179.2H204.8v-179.2
		c0-28.279,22.921-51.2,51.2-51.2c28.279,0,51.2,22.921,51.2,51.2v179.2h34.133v-179.2C341.333,46.737,303.13,8.533,256,8.533z"/>
	<path style="fill:#78B9EB;" d="M256,85.333c-9.429,0-17.067,7.637-17.067,17.067v170.667h34.133V102.4
		C273.067,92.971,265.429,85.333,256,85.333z"/>
</g>
<path d="M349.867,266.103V93.867C349.867,42.027,307.84,0,256,0s-93.867,42.027-93.867,93.867v172.237
	c-10.189,3.601-17.024,13.218-17.067,24.03V307.2c-0.077,31.326,18.935,59.537,47.991,71.228c1.067,0.435,2.133,0.794,3.209,1.161
	v12.945c0.026,6.315,2.398,12.399,6.656,17.067c-8.875,9.651-8.875,24.482,0,34.133c-9.489,10.402-8.747,26.522,1.655,36.011
	c4.719,4.309,10.897,6.682,17.289,6.656c0,14.14,11.46,25.6,25.6,25.6h17.067c14.14,0,25.6-11.46,25.6-25.6
	c14.08,0.06,25.54-11.298,25.6-25.378c0.026-6.391-2.347-12.57-6.656-17.289c8.875-9.651,8.875-24.482,0-34.133
	c4.258-4.668,6.63-10.752,6.656-17.067v-13.082c1.067-0.375,2.15-0.597,3.209-1.024c29.056-11.691,48.068-39.902,47.991-71.228
	v-17.067C366.891,279.322,360.055,269.705,349.867,266.103z M179.2,93.867c0-42.419,34.381-76.8,76.8-76.8s76.8,34.381,76.8,76.8
	v170.667h-17.067V93.867c0-32.99-26.743-59.733-59.733-59.733s-59.733,26.743-59.733,59.733v170.667H179.2V93.867z M281.6,264.533
	V102.4c0-14.14-11.46-25.6-25.6-25.6c-14.14,0-25.6,11.46-25.6,25.6v162.133h-17.067V93.867c0-23.561,19.106-42.667,42.667-42.667
	c23.561,0,42.667,19.106,42.667,42.667v170.667H281.6z M264.533,264.533h-17.067V102.4c0-4.71,3.823-8.533,8.533-8.533
	c4.71,0,8.533,3.823,8.533,8.533V264.533z M298.667,383.514v9.02c0,4.71-3.823,8.533-8.533,8.533h-68.267
	c-4.71,0-8.533-3.823-8.533-8.533v-9.02c2.833,0.324,5.683,0.486,8.533,0.486h68.267C292.983,384,295.834,383.838,298.667,383.514z
	 M298.667,426.667c0,4.71-3.823,8.533-8.533,8.533h-68.267c-4.71,0-8.533-3.823-8.533-8.533s3.823-8.533,8.533-8.533h68.267
	C294.844,418.133,298.667,421.956,298.667,426.667z M264.533,494.933h-17.067c-4.71,0-8.533-3.823-8.533-8.533h34.133
	C273.067,491.11,269.244,494.933,264.533,494.933z M290.133,469.333h-68.267c-4.71,0-8.533-3.823-8.533-8.533
	s3.823-8.533,8.533-8.533h68.267c4.71,0,8.533,3.823,8.533,8.533S294.844,469.333,290.133,469.333z M349.867,307.2
	c0.051,24.371-14.737,46.31-37.342,55.407c-2.441,0.99-4.949,1.792-7.509,2.389c-4.855,1.289-9.856,1.937-14.882,1.937h-68.267
	c-5.103,0-10.18-0.674-15.113-1.988c-2.483-0.597-4.915-1.374-7.279-2.338c-22.605-9.097-37.393-31.036-37.342-55.407v-17.067
	c0-4.71,3.823-8.533,8.533-8.533h170.667c4.71,0,8.533,3.823,8.533,8.533V307.2z"/>
<g>
</g>
<g>
</g>
<g>
</g>
<g>
</g>
<g>
</g>
<g>
</g>
<g>
</g>
<g>
</g>
<g>
</g>
<g>
</g>
<g>
</g>
<g>
</g>
<g>
</g>
<g>
</g>
<g>
</g>
</svg>
