<?xml version="1.0" encoding="iso-8859-1"?>
<!-- Generator: Adobe Illustrator 19.0.0, SVG Export Plug-In . SVG Version: 6.00 Build 0)  -->
<svg version="1.1" id="Capa_1" xmlns="http://www.w3.org/2000/svg" xmlns:xlink="http://www.w3.org/1999/xlink" x="0px" y="0px"
	 viewBox="0 0 512 512" style="enable-background:new 0 0 512 512;" xml:space="preserve">
<g>
	<path style="fill:#C9E3F7;" d="M172.033,211.797c-0.512,0-1.024,0.085-1.451,0.085l-1.451,0.171
		c-8.789,0.725-15.548,8.081-15.531,16.896v0.085c0.026,9.387,7.654,16.981,17.041,16.956c0.461,0,0.93-0.026,1.391-0.06
		l24.235-2.048v29.184h34.133v-32l51.2-4.267l34.133-2.816l27.136-2.304c8.789-0.725,15.548-8.081,15.531-16.896v-0.085
		c-0.043-9.361-7.62-16.939-16.981-16.981l-1.451,0.085L172.033,211.797z"/>
	<path style="fill:#C9E3F7;" d="M358.401,180.651v-0.085c-0.026-9.387-7.654-16.981-17.041-16.956c-0.461,0-0.93,0.026-1.391,0.06
		L169.131,177.92c-8.789,0.725-15.548,8.081-15.531,16.896v0.085c0.043,9.361,7.62,16.939,16.981,16.981
		c0.427,0,0.939-0.085,1.451-0.085l167.936-13.995l1.451-0.085l1.451-0.171C351.659,196.821,358.418,189.466,358.401,180.651z"/>
	<path style="fill:#C9E3F7;" d="M171.99,143.531l-2.816,0.239c-8.798,0.734-15.573,8.09-15.573,16.922v0.051
		c0,9.378,7.603,16.981,16.981,16.981c0.469,0,0.939-0.017,1.408-0.06l170.837-14.234c8.806-0.734,15.573-8.09,15.573-16.922v-0.051
		c0-9.378-7.603-16.981-16.981-16.981c-0.469,0-0.939,0.017-1.408,0.06L171.99,143.531z"/>
	<path style="fill:#C9E3F7;" d="M172.033,109.397l-2.859,0.239c-8.798,0.734-15.573,8.09-15.573,16.922v0.051
		c0,9.378,7.603,16.981,16.981,16.981c0.469,0,0.939-0.017,1.408-0.06l168.021-13.995l0,0l2.816-0.239
		c8.806-0.734,15.573-8.09,15.573-16.922v-0.051c0.009-9.37-7.595-16.973-16.964-16.981c-0.478,0-0.947,0.017-1.425,0.06
		L176.12,109.056C176.12,109.056,172.033,109.397,172.033,109.397z"/>
</g>
<polygon style="fill:#FFDA44;" points="171.99,143.531 171.99,143.531 340.011,129.536 340.011,129.536 "/>
<path style="fill:#C9E3F7;" d="M358.401,78.251v-0.085c-0.026-9.387-7.654-16.981-17.041-16.956c-0.461,0-0.93,0.017-1.391,0.06
	l-84.591,7.049l-67.644,5.666l0,0l-15.701,1.306l-2.901,0.256c-8.781,0.725-15.531,8.064-15.531,16.87v0.085
	c0.026,9.387,7.654,16.981,17.041,16.956c0.461,0,0.93-0.017,1.391-0.06l4.087-0.341l166.75-13.909
	C351.659,94.421,358.418,87.066,358.401,78.251z"/>
<path style="fill:#FFDA44;" d="M172.033,109.397l4.087-0.341L172.033,109.397z"/>
<path style="fill:#C9E3F7;" d="M324.267,62.549V42.667c0-18.85-15.283-34.133-34.133-34.133h-68.267
	c-18.85,0-34.133,15.283-34.133,34.133v31.292l67.644-5.641L324.267,62.549z M221.867,71.168V42.667h68.267v22.784L221.867,71.168z"
	/>
<polygon style="fill:#FFDA44;" points="255.378,68.318 187.734,73.958 187.734,73.984 "/>
<path style="fill:#78B9EB;" d="M170.667,273.067c-9.412,0.026-17.041,7.654-17.067,17.067V307.2
	c0.009,27.827,16.879,52.864,42.667,63.317c2.773,1.126,5.623,2.039,8.533,2.731c5.572,1.476,11.307,2.219,17.067,2.219h68.267
	c5.76,0,11.494-0.742,17.067-2.219c2.91-0.691,5.76-1.604,8.533-2.731c25.788-10.453,42.658-35.49,42.667-63.317v-17.067
	c-0.026-9.412-7.654-17.041-17.067-17.067H170.667z"/>
<g>
	<path style="fill:#939598;" d="M204.801,460.8c0,9.429,7.637,17.067,17.067,17.067h68.267c9.429,0,17.067-7.637,17.067-17.067
		s-7.637-17.067-17.067-17.067h-68.267C212.447,443.733,204.801,451.371,204.801,460.8z"/>
	<path style="fill:#939598;" d="M204.801,426.667c0,9.429,7.637,17.067,17.067,17.067h68.267c9.429,0,17.067-7.637,17.067-17.067
		s-7.637-17.067-17.067-17.067h-68.267C212.447,409.6,204.801,417.237,204.801,426.667z"/>
	<path style="fill:#939598;" d="M221.867,375.467c-5.76,0-11.494-0.742-17.067-2.219v19.285c0.026,9.412,7.654,17.041,17.067,17.067
		h68.267c9.412-0.026,17.041-7.654,17.067-17.067v-19.285c-5.564,1.476-11.307,2.219-17.067,2.219H221.867z"/>
</g>
<path style="fill:#E6E7E8;" d="M230.401,486.4c0,9.429,7.637,17.067,17.067,17.067h17.067c9.429,0,17.067-7.637,17.067-17.067
	v-8.533h-51.2V486.4z"/>
<rect x="281.601" y="238.933" style="fill:#C9E3F7;" width="34.133" height="34.133"/>
<path style="fill:#231F20;" d="M366.934,78.165c-0.026-14.097-11.477-25.515-25.574-25.489c-0.7,0-1.399,0.034-2.099,0.094
	l-6.46,0.538V42.667C332.775,19.115,313.686,0.026,290.134,0h-68.267c-23.552,0.026-42.641,19.115-42.667,42.667v23.45
	l-10.735,0.896c-13.969,1.092-24.414,13.303-23.322,27.281c0.444,5.649,2.765,10.991,6.596,15.172
	c-8.892,9.643-8.892,24.491,0,34.133c-8.883,9.643-8.883,24.491,0,34.133c-4.275,4.693-6.656,10.82-6.673,17.169
	c0.017,6.289,2.381,12.348,6.622,16.99c-9.455,10.436-8.661,26.573,1.775,36.028c5.248,4.753,12.237,7.117,19.294,6.511
	l14.976-1.263v11.366h-17.067c-14.14,0-25.6,11.46-25.6,25.6V307.2c-0.077,31.326,18.935,59.537,47.991,71.228
	c1.067,0.435,2.133,0.794,3.209,1.161v12.945c0.026,6.315,2.398,12.399,6.656,17.067c-8.875,9.651-8.875,24.482,0,34.133
	c-9.489,10.402-8.747,26.522,1.655,36.011c4.727,4.309,10.897,6.682,17.289,6.656c0,14.14,11.46,25.6,25.6,25.6h17.067
	c14.14,0,25.6-11.46,25.6-25.6c14.08,0.06,25.54-11.298,25.6-25.378c0.026-6.391-2.347-12.57-6.656-17.289
	c8.875-9.651,8.875-24.482,0-34.133c4.258-4.668,6.63-10.752,6.656-17.067v-13.082c1.067-0.375,2.15-0.597,3.209-1.024
	c29.056-11.691,48.068-39.902,47.991-71.228v-17.067c0-14.14-11.46-25.6-25.6-25.6h-17.067v-22.733l19.268-1.613
	c13.201-1.135,23.347-12.16,23.398-25.404v-0.085c-0.017-6.281-2.389-12.331-6.639-16.947c4.25-4.668,6.613-10.752,6.639-17.067
	v-0.085c-0.051-6.289-2.432-12.331-6.673-16.964c8.892-9.643,8.892-24.491,0-34.133c8.883-9.643,8.883-24.491,0-34.133
	c4.258-4.668,6.63-10.752,6.647-17.067L366.934,78.165z M349.867,180.651c-0.026,4.471-3.507,8.149-7.97,8.422l-169.865,14.191
	c-0.486,0-0.973,0.026-1.451,0.085c-4.685-0.009-8.474-3.814-8.465-8.499c0.009-4.386,3.354-8.038,7.723-8.431l170.948-14.259h0.649
	c4.634,0.034,8.388,3.772,8.431,8.405V180.651z M342.119,154.931l-2.807,0.239h-0.051l-167.979,13.995
	c-4.659,0.375-8.747-3.098-9.122-7.757c-0.017-0.239-0.026-0.478-0.026-0.717c0.034-4.378,3.388-8.021,7.748-8.422l2.773-0.23l0,0
	l168.055-13.995c0.23,0,0.461,0,0.691,0c4.676,0.026,8.448,3.831,8.422,8.508c0,0.009,0,0.017,0,0.026
	C349.756,150.912,346.437,154.513,342.119,154.931z M342.119,120.798l-2.799,0.239l0,0l-168.03,13.995
	c-2.347,0.188-4.676-0.614-6.409-2.21c-1.766-1.604-2.756-3.883-2.731-6.263c0.034-4.378,3.388-8.021,7.748-8.422l2.731-0.23h0.128
	l167.979-13.995c0.239,0,0.486,0,0.725,0c4.676,0.026,8.448,3.831,8.422,8.508c0,0.009,0,0.017,0,0.026
	C349.808,116.804,346.463,120.405,342.119,120.798z M230.401,61.841V51.2h51.2v6.357L230.401,61.841z M196.267,42.667
	c0-14.14,11.46-25.6,25.6-25.6h68.267c14.14,0,25.6,11.46,25.6,25.6v12.032l-17.067,1.434V42.667c0-4.71-3.823-8.533-8.533-8.533
	h-68.267c-4.71,0-8.533,3.823-8.533,8.533v20.599l-17.067,1.425V42.667z M169.865,84.019l170.829-14.251c0.256,0,0.495,0,0.742,0
	c4.634,0.034,8.38,3.763,8.431,8.397v0.085c0.009,4.369-3.328,8.013-7.68,8.397l-170.871,14.251
	c-2.355,0.188-4.676-0.606-6.417-2.21c-3.447-3.166-3.669-8.516-0.512-11.964c1.434-1.562,3.396-2.526,5.504-2.705H169.865z
	 M298.667,383.514v9.02c0,4.71-3.823,8.533-8.533,8.533h-68.267c-4.71,0-8.533-3.823-8.533-8.533v-9.02
	c2.833,0.324,5.683,0.486,8.533,0.486h68.267C292.984,384,295.834,383.838,298.667,383.514z M298.667,426.667
	c0,4.71-3.823,8.533-8.533,8.533h-68.267c-4.71,0-8.533-3.823-8.533-8.533s3.823-8.533,8.533-8.533h68.267
	C294.844,418.133,298.667,421.956,298.667,426.667z M264.534,494.933h-17.067c-4.71,0-8.533-3.823-8.533-8.533h34.133
	C273.067,491.11,269.244,494.933,264.534,494.933z M290.134,469.333h-68.267c-4.71,0-8.533-3.823-8.533-8.533
	s3.823-8.533,8.533-8.533h68.267c4.71,0,8.533,3.823,8.533,8.533S294.844,469.333,290.134,469.333z M349.867,290.133V307.2
	c0.051,24.371-14.737,46.31-37.342,55.407c-2.441,0.99-4.949,1.792-7.509,2.389c-4.855,1.289-9.856,1.937-14.882,1.937h-68.267
	c-5.103,0-10.18-0.674-15.113-1.988c-2.483-0.597-4.915-1.374-7.279-2.338c-22.605-9.097-37.393-31.036-37.342-55.407v-17.067
	c0-4.71,3.823-8.533,8.533-8.533h170.667C346.044,281.6,349.867,285.423,349.867,290.133z M238.934,264.533v-15.616l34.133-2.85
	v18.466H238.934z M307.201,264.533h-17.067v-19.891l17.067-1.417V264.533z M349.867,214.784c0.009,4.369-3.328,8.013-7.68,8.397
	l-112.461,9.387c-4.437,0.367-7.842,4.087-7.825,8.533v23.433h-17.101v-20.651c0-2.389-0.998-4.668-2.756-6.281
	c-1.749-1.638-4.113-2.449-6.494-2.219l-24.243,2.048c-2.364,0.196-4.693-0.606-6.434-2.21c-1.766-1.604-2.765-3.883-2.739-6.272
	c0.026-4.471,3.507-8.149,7.97-8.422l1.126-0.128h0.111l1.399-0.094l167.74-13.986l0.964-0.068c4.668,0.009,8.439,3.78,8.448,8.448
	L349.867,214.784z"/>
<g>
</g>
<g>
</g>
<g>
</g>
<g>
</g>
<g>
</g>
<g>
</g>
<g>
</g>
<g>
</g>
<g>
</g>
<g>
</g>
<g>
</g>
<g>
</g>
<g>
</g>
<g>
</g>
<g>
</g>
</svg>
