<?xml version="1.0" encoding="iso-8859-1"?>
<!-- Generator: Adobe Illustrator 19.0.0, SVG Export Plug-In . SVG Version: 6.00 Build 0)  -->
<svg version="1.1" id="Capa_1" xmlns="http://www.w3.org/2000/svg" xmlns:xlink="http://www.w3.org/1999/xlink" x="0px" y="0px"
	 viewBox="0 0 512 512" style="enable-background:new 0 0 512 512;" xml:space="preserve">
<g>
	<polygon style="fill:#FFAF46;" points="204.8,460.8 221.867,460.8 290.133,460.8 307.2,460.8 307.2,426.667 204.8,426.667 	"/>
	<rect x="204.8" y="392.533" style="fill:#FFAF46;" width="102.4" height="34.133"/>
	<path style="fill:#FFAF46;" d="M262.903,76.971c-75.307-3.797-139.443,54.17-143.241,129.476
		c-2.586,51.26,23.791,99.644,68.284,125.235c10.47,6.076,16.896,17.28,16.853,29.38v31.471h102.4v-31.437
		c-0.162-11.947,6.076-23.066,16.358-29.15c65.51-37.342,88.354-120.713,51.012-186.223
		C351.514,105.259,309.419,79.343,262.903,76.971z M307.2,358.4h-76.8l-25.6-136.533L238.933,256L256,221.867L273.067,256
		l34.133-34.133L281.6,358.4H307.2z"/>
</g>
<path style="fill:#58595B;" d="M221.867,469.333c0,18.85,15.283,34.133,34.133,34.133c18.85,0,34.133-15.283,34.133-34.133V460.8
	h-68.267V469.333z"/>
<polygon style="fill:#FF5023;" points="273.067,256 256,221.867 238.933,256 204.8,221.867 230.4,358.4 281.6,358.4 307.2,221.867 
	"/>
<path id="SVGCleanerId_0" style="fill:#231F20;" d="M256,51.2c-4.71,0-8.533-3.823-8.533-8.533V8.533C247.467,3.823,251.29,0,256,0
	c4.71,0,8.533,3.823,8.533,8.533v34.133C264.533,47.377,260.71,51.2,256,51.2z"/>
<path id="SVGCleanerId_1" style="fill:#231F20;" d="M170.667,74.069c-3.055,0-5.871-1.621-7.398-4.267l-17.067-29.568
	c-2.33-4.096-0.896-9.31,3.2-11.639c4.062-2.304,9.216-0.922,11.58,3.106l17.067,29.568c2.355,4.079,0.956,9.301-3.123,11.657
	C173.628,73.677,172.16,74.069,170.667,74.069z"/>
<path style="fill:#231F20;" d="M108.194,136.533c-1.502,0-2.97-0.393-4.267-1.143l-29.568-17.067
	c-4.062-2.381-5.427-7.612-3.046-11.674c2.364-4.028,7.518-5.41,11.58-3.106l29.568,17.067c4.079,2.355,5.478,7.578,3.123,11.657
	C114.057,134.903,111.241,136.533,108.194,136.533z"/>
<path id="SVGCleanerId_2" style="fill:#231F20;" d="M85.333,221.867H51.2c-4.71,0-8.533-3.823-8.533-8.533S46.49,204.8,51.2,204.8
	h34.133c4.71,0,8.533,3.823,8.533,8.533S90.044,221.867,85.333,221.867z"/>
<g>
	<path style="fill:#231F20;" d="M78.643,324.267c-4.71,0-8.533-3.823-8.533-8.533c0-3.046,1.63-5.862,4.267-7.39l29.568-17.067
		c4.062-2.381,9.293-1.024,11.674,3.046c2.381,4.062,1.024,9.293-3.046,11.674c-0.034,0.017-0.068,0.043-0.102,0.06l-29.568,17.067
		C81.613,323.874,80.145,324.267,78.643,324.267z"/>
	<path style="fill:#231F20;" d="M433.357,324.267c-1.502,0-2.97-0.393-4.267-1.143l-29.568-17.067
		c-4.096-2.33-5.53-7.535-3.2-11.639c2.33-4.096,7.535-5.53,11.639-3.2c0.034,0.017,0.068,0.034,0.102,0.06l29.568,17.067
		c4.079,2.355,5.478,7.578,3.123,11.657C439.219,322.637,436.403,324.267,433.357,324.267z"/>
</g>
<path id="SVGCleanerId_3" style="fill:#231F20;" d="M460.8,221.867h-34.133c-4.71,0-8.533-3.823-8.533-8.533
	s3.823-8.533,8.533-8.533H460.8c4.71,0,8.533,3.823,8.533,8.533S465.51,221.867,460.8,221.867z"/>
<g>
	<path style="fill:#231F20;" d="M403.806,136.533c-4.71,0-8.533-3.823-8.533-8.533c0-3.046,1.63-5.862,4.267-7.39l29.568-17.067
		c4.062-2.381,9.293-1.015,11.674,3.046c2.381,4.062,1.015,9.293-3.046,11.674c-0.034,0.017-0.068,0.034-0.094,0.06l-29.568,17.067
		C406.775,136.141,405.308,136.533,403.806,136.533z"/>
	<path style="fill:#231F20;" d="M341.333,74.069c-4.71-0.009-8.533-3.831-8.525-8.542c0-1.493,0.393-2.961,1.143-4.258
		l17.067-29.568c2.381-4.062,7.612-5.427,11.674-3.046c4.028,2.364,5.41,7.518,3.106,11.58l-17.067,29.568
		C347.204,72.448,344.388,74.069,341.333,74.069z"/>
</g>
<g>
	<path id="SVGCleanerId_0_1_" style="fill:#231F20;" d="M256,51.2c-4.71,0-8.533-3.823-8.533-8.533V8.533
		C247.467,3.823,251.29,0,256,0c4.71,0,8.533,3.823,8.533,8.533v34.133C264.533,47.377,260.71,51.2,256,51.2z"/>
</g>
<g>
	<path id="SVGCleanerId_1_1_" style="fill:#231F20;" d="M170.667,74.069c-3.055,0-5.871-1.621-7.398-4.267l-17.067-29.568
		c-2.33-4.096-0.896-9.31,3.2-11.639c4.062-2.304,9.216-0.922,11.58,3.106l17.067,29.568c2.355,4.079,0.956,9.301-3.123,11.657
		C173.628,73.677,172.16,74.069,170.667,74.069z"/>
</g>
<g>
	<path id="SVGCleanerId_2_1_" style="fill:#231F20;" d="M85.333,221.867H51.2c-4.71,0-8.533-3.823-8.533-8.533
		S46.49,204.8,51.2,204.8h34.133c4.71,0,8.533,3.823,8.533,8.533S90.044,221.867,85.333,221.867z"/>
</g>
<g>
	<path id="SVGCleanerId_3_1_" style="fill:#231F20;" d="M460.8,221.867h-34.133c-4.71,0-8.533-3.823-8.533-8.533
		s3.823-8.533,8.533-8.533H460.8c4.71,0,8.533,3.823,8.533,8.533S465.51,221.867,460.8,221.867z"/>
</g>
<path style="fill:#231F20;" d="M263.322,68.446C183.305,64.41,115.166,126.003,111.13,206.02
	c-2.748,54.468,25.284,105.873,72.559,133.06c7.817,4.557,12.612,12.937,12.578,21.982V460.8c0,4.71,3.823,8.533,8.533,8.533h8.533
	C213.333,492.894,232.439,512,256,512c23.561,0,42.667-19.106,42.667-42.667h8.533c4.71,0,8.533-3.823,8.533-8.533v-99.703
	c-0.171-8.875,4.429-17.152,12.041-21.709c69.623-39.646,93.918-128.222,54.272-197.845
	C357.547,98.509,312.781,70.946,263.322,68.446z M256,494.933c-14.14,0-25.6-11.46-25.6-25.6h51.2
	C281.6,483.473,270.14,494.933,256,494.933z M298.667,452.267h-85.333V435.2h85.333V452.267z M298.667,418.133h-85.333v-17.067
	h85.333V418.133z M213.333,384v-17.067h85.333V384H213.333z M237.483,349.867l-19.209-102.46l14.626,14.626
	c3.337,3.328,8.738,3.319,12.066-0.017c0.64-0.649,1.178-1.391,1.587-2.202L256,240.947l9.387,18.867
	c2.116,4.215,7.236,5.914,11.452,3.806c0.811-0.41,1.553-0.947,2.202-1.587l14.626-14.626l-19.149,102.46H237.483z M319.334,324.557
	c-9.532,5.521-16.452,14.643-19.2,25.31h-8.252l23.706-126.43c0.87-4.634-2.185-9.088-6.818-9.958
	c-2.765-0.521-5.615,0.367-7.603,2.355l-25.762,25.762l-11.725-23.543c-2.517-4.215-7.97-5.598-12.194-3.081
	c-1.271,0.759-2.33,1.818-3.081,3.081l-11.767,23.543l-25.762-25.762c-3.337-3.328-8.738-3.328-12.066,0
	c-1.988,1.988-2.867,4.838-2.355,7.603l23.706,126.43h-8.286c-2.901-10.795-9.958-19.994-19.627-25.6
	c-39.68-22.861-64.171-65.135-64.247-110.933c0-70.69,57.31-128,128-128c2.159,0,4.318,0.051,6.477,0.162
	c70.605,3.584,124.928,63.727,121.344,134.323C381.611,263.45,357.299,302.933,319.334,324.557z"/>
<g>
</g>
<g>
</g>
<g>
</g>
<g>
</g>
<g>
</g>
<g>
</g>
<g>
</g>
<g>
</g>
<g>
</g>
<g>
</g>
<g>
</g>
<g>
</g>
<g>
</g>
<g>
</g>
<g>
</g>
</svg>
