<?xml version="1.0" encoding="iso-8859-1"?>
<!-- Generator: Adobe Illustrator 19.0.0, SVG Export Plug-In . SVG Version: 6.00 Build 0)  -->
<svg version="1.1" id="Capa_1" xmlns="http://www.w3.org/2000/svg" xmlns:xlink="http://www.w3.org/1999/xlink" x="0px" y="0px"
	 viewBox="0 0 511.992 511.992" style="enable-background:new 0 0 511.992 511.992;" xml:space="preserve">
<path style="fill:#939598;" d="M419.929,426.29c-2.547-6.372-8.718-10.559-15.586-10.567H107.655
	c-6.868,0.008-13.039,4.195-15.586,10.567l-29.423,73.5h386.707L419.929,426.29z"/>
<path style="fill:#FF9811;" d="M380.855,290.295c-4.044-52.559-47.868-93.146-100.577-93.146H231.72
	c-52.71,0-96.534,40.587-100.577,93.146l-9.651,125.428h269.014L380.855,290.295z"/>
<g>
	<path style="fill:#231F20;" d="M255.999,155.116c-4.64,0-8.407-3.766-8.407-8.407V12.202c0-4.64,3.766-8.407,8.407-8.407
		s8.407,3.766,8.407,8.407v134.507C264.405,151.35,260.639,155.116,255.999,155.116z"/>
	<path style="fill:#231F20;" d="M180.339,175.384c-3.01,0-5.784-1.597-7.289-4.203L105.797,54.698c-2.345-4.002-1-9.155,3.001-11.5
		c4.002-2.345,9.155-1,11.5,3.001c0.017,0.034,0.034,0.067,0.059,0.092l67.253,116.483c2.32,4.018,0.942,9.163-3.077,11.484
		C183.256,174.998,181.81,175.384,180.339,175.384z"/>
	<path style="fill:#231F20;" d="M124.939,230.776c-1.48,0-2.926-0.387-4.203-1.126L4.253,162.396
		c-4.035-2.295-5.448-7.423-3.153-11.467c2.295-4.044,7.423-5.448,11.467-3.152c0.034,0.017,0.067,0.034,0.092,0.059l116.483,67.253
		c4.018,2.32,5.397,7.465,3.077,11.484C130.714,229.17,127.94,230.776,124.939,230.776z"/>
	<path style="fill:#231F20;" d="M387.059,230.776c-4.64,0-8.407-3.766-8.407-8.407c0-3.001,1.606-5.775,4.203-7.28l116.483-67.253
		c4.002-2.345,9.155-1,11.5,3.001s1,9.155-3.001,11.5c-0.034,0.017-0.067,0.034-0.092,0.059l-116.483,67.253
		C389.984,230.389,388.53,230.776,387.059,230.776z"/>
	<path style="fill:#231F20;" d="M331.659,175.384c-4.64-0.008-8.407-3.775-8.398-8.415c0-1.471,0.387-2.917,1.126-4.195
		L391.64,46.292c2.295-4.035,7.423-5.448,11.467-3.153c4.035,2.295,5.448,7.423,3.152,11.467c-0.017,0.034-0.034,0.067-0.059,0.101
		l-67.253,116.483C337.443,173.787,334.668,175.384,331.659,175.384z"/>
	<path style="fill:#231F20;" d="M457.162,496.671l-29.423-73.508c-3.808-9.584-13.081-15.872-23.396-15.847h-6.053l-9.046-117.693
		c-4.632-56.812-51.962-100.636-108.967-100.88H231.72c-57.006,0.244-104.335,44.068-108.967,100.88l-9.046,117.693h-6.053
		c-10.323-0.034-19.613,6.255-23.421,15.855l-29.423,73.5c-1.723,4.313,0.378,9.205,4.691,10.929c1,0.404,2.068,0.605,3.144,0.597
		h386.707c4.64,0,8.407-3.758,8.407-8.407C457.759,498.722,457.557,497.663,457.162,496.671z M139.524,290.943
		c3.901-48.086,43.958-85.185,92.196-85.387h48.557c48.237,0.202,88.295,37.3,92.196,85.387l8.953,116.374H130.571L139.524,290.943z
		 M75.062,491.383l24.791-61.966c1.261-3.203,4.363-5.296,7.801-5.288h296.688c3.438,0,6.524,2.093,7.801,5.279l24.791,61.974
		H75.062z"/>
	<path style="fill:#231F20;" d="M255.999,356.876c-4.64,0-8.407-3.766-8.407-8.407V230.776c0-4.64,3.766-8.407,8.407-8.407
		s8.407,3.766,8.407,8.407v117.693C264.405,353.11,260.639,356.876,255.999,356.876z"/>
	<path style="fill:#231F20;" d="M255.999,390.503c-4.64,0-8.407-3.766-8.407-8.407v-8.407c0-4.64,3.766-8.407,8.407-8.407
		s8.407,3.766,8.407,8.407v8.407C264.405,386.737,260.639,390.503,255.999,390.503z"/>
</g>
<g>
</g>
<g>
</g>
<g>
</g>
<g>
</g>
<g>
</g>
<g>
</g>
<g>
</g>
<g>
</g>
<g>
</g>
<g>
</g>
<g>
</g>
<g>
</g>
<g>
</g>
<g>
</g>
<g>
</g>
</svg>
