<?xml version="1.0" encoding="iso-8859-1"?>
<!-- Generator: Adobe Illustrator 19.0.0, SVG Export Plug-In . SVG Version: 6.00 Build 0)  -->
<svg version="1.1" id="Capa_1" xmlns="http://www.w3.org/2000/svg" xmlns:xlink="http://www.w3.org/1999/xlink" x="0px" y="0px"
	 viewBox="0 0 512 512" style="enable-background:new 0 0 512 512;" xml:space="preserve">
<path style="fill:#96C9EF;" d="M204.806,102.4h102.4c9.429,0,17.067-7.637,17.067-17.067V51.2c0-9.429-7.637-17.067-17.067-17.067
	h-102.4c-9.429,0-17.067,7.637-17.067,17.067v34.133C187.74,94.763,195.377,102.4,204.806,102.4z"/>
<g>
	<path style="fill:#ACABB1;" d="M136.54,409.66l42.607-0.06h-69.12c-28.279,0-51.2-22.929-51.2-51.2
		c0-2.935,0.256-5.871,0.759-8.772l36.122-207.727c5.683-32.683,34.048-56.55,67.226-56.567h24.806V51.2h-24.806
		c-49.783,0-92.356,35.806-100.881,84.855l-36.13,207.727c-8.073,46.43,23.023,90.615,69.453,98.688
		c4.83,0.845,9.719,1.263,14.618,1.263h35.081l34.133-34.133"/>
	<path style="fill:#ACABB1;" d="M375.473,409.66l-42.607-0.06h69.12c28.279,0,51.2-22.929,51.2-51.2
		c0-2.935-0.256-5.871-0.759-8.772l-36.087-207.727c-5.692-32.7-34.074-56.567-67.26-56.567h-24.806V51.2h24.806
		c49.783,0,92.348,35.806,100.881,84.855l36.13,207.727c8.073,46.43-23.023,90.615-69.453,98.688
		c-4.83,0.845-9.719,1.263-14.618,1.263H366.94L332.806,409.6"/>
</g>
<g>
	<path style="fill:#939598;" d="M273.073,25.6c0-9.429-7.637-17.067-17.067-17.067c-9.429,0-17.067,7.637-17.067,17.067v8.533
		h34.133V25.6z"/>
	<rect x="221.865" y="102.4" style="fill:#939598;" width="68.267" height="34.133"/>
	<rect x="221.865" y="366.933" style="fill:#939598;" width="68.267" height="34.133"/>
</g>
<g>
	<path style="fill:#FFAF46;" d="M191.392,136.533c-28.279,0-51.2,22.921-51.2,51.2c0,1.178,0.043,2.355,0.119,3.524l3.558,44.774
		c39.33,6.153,77.286,19.14,112.137,38.383c34.85-19.251,72.806-32.247,112.137-38.4l3.558-44.774
		c1.937-28.211-19.362-52.651-47.573-54.588c-1.169-0.077-2.338-0.119-3.507-0.119H191.392z"/>
	<path style="fill:#FFAF46;" d="M256.006,274.415c-34.85-19.251-72.806-32.247-112.137-38.4l5.35,67.328
		c1.058,15.479,7.381,30.131,17.92,41.515l1.263-1.391C193.619,315.802,223.213,292.471,256.006,274.415z"/>
	<path style="fill:#FFAF46;" d="M256.006,274.415c-32.794,18.057-62.396,41.395-87.612,69.069l-1.263,1.391
		c12.902,14.063,31.113,22.067,50.193,22.059h77.363c19.081,0.009,37.291-7.996,50.193-22.059l-1.263-1.391
		C318.402,315.81,288.8,292.471,256.006,274.415z"/>
	<path style="fill:#FFAF46;" d="M343.618,343.484l1.263,1.391c10.539-11.383,16.862-26.035,17.92-41.515l5.35-67.328
		c-39.339,6.153-77.286,19.14-112.145,38.383C288.8,292.471,318.402,315.81,343.618,343.484z"/>
</g>
<path style="fill:#96C9EF;" d="M213.34,401.067c-47.13,0-85.333,38.204-85.333,85.333v17.067h256V486.4
	c0-47.13-38.204-85.333-85.333-85.333H213.34z"/>
<path style="fill:#231F20;" d="M494.496,342.315l-36.122-207.727c-9.173-53.18-55.33-92.006-109.295-91.921h-17.843
	c-3.601-10.189-13.218-17.024-24.03-17.067h-25.6c0-14.14-11.46-25.6-25.6-25.6c-14.14,0-25.6,11.46-25.6,25.6h-25.6
	c-10.812,0.043-20.429,6.878-24.03,17.067h-17.843c-53.965-0.085-100.13,38.741-109.295,91.921L17.517,342.315
	c-8.883,51.072,25.318,99.678,76.39,108.561c5.316,0.93,10.701,1.391,16.094,1.391h15.991c-4.292,10.871-6.502,22.451-6.519,34.133
	v8.533H85.34c-4.71,0-8.533,3.823-8.533,8.533c0,4.71,3.823,8.533,8.533,8.533h341.333c4.71,0,8.533-3.823,8.533-8.533
	c0-4.71-3.823-8.533-8.533-8.533H392.54V486.4c-0.017-11.682-2.227-23.262-6.519-34.133h15.991c51.84,0,93.867-42.018,93.875-93.858
	C495.887,353.015,495.418,347.631,494.496,342.315z M338.686,401.613c-12.501-5.965-26.163-9.062-40.013-9.079V375.27
	c19.661-1.033,38.17-9.591,51.695-23.893c0.068-0.06,0.162-0.077,0.239-0.145c0.077-0.068,0.179-0.282,0.299-0.401
	c11.964-12.791,19.166-29.303,20.395-46.771l4.813-60.587c11.136-1.536,22.34-2.5,33.579-2.876l15.044-0.503l19.311,111.053
	c4.002,23.219-11.571,45.295-34.79,49.297c-2.398,0.418-4.821,0.623-7.245,0.623h-60.587
	C340.486,401.092,339.565,401.28,338.686,401.613z M173.327,401.613c-0.87-0.333-1.783-0.512-2.714-0.546h-60.587
	c-23.561,0-42.667-19.106-42.667-42.667c0-2.449,0.213-4.89,0.631-7.305l19.285-111.053l15.044,0.503
	c11.238,0.375,22.443,1.34,33.579,2.876l4.804,60.527c1.229,17.459,8.422,33.971,20.369,46.771c0.128,0.137,0.188,0.324,0.333,0.452
	c0.145,0.128,0.188,0.094,0.273,0.171c13.508,14.31,32.009,22.878,51.661,23.927v17.263
	C199.49,392.55,185.82,395.648,173.327,401.613z M180.777,93.867c3.601,10.189,13.218,17.024,24.03,17.067h8.533V128h-21.948
	c-32.99,0-59.733,26.743-59.733,59.733c0,1.399,0.051,2.799,0.145,4.198l2.714,34.133c-10.47-1.331-21.018-2.244-31.625-2.56
	l-12.663-0.427l13.884-79.718c4.941-28.646,29.815-49.553,58.88-49.493L180.777,93.867z M360.156,228.693
	c-36.395,6.511-71.543,18.705-104.149,36.139c-32.597-17.425-67.729-29.619-104.107-36.139l-3.029-38.059
	c-1.604-23.509,16.154-43.87,39.663-45.466c0.956-0.068,1.903-0.102,2.859-0.102h129.229c23.561,0,42.667,19.098,42.667,42.667
	c0,0.947-0.034,1.894-0.094,2.842L360.156,228.693z M294.688,358.4h-77.363c-13.943-0.017-27.435-4.932-38.118-13.892
	c22.494-23.731,48.375-44.006,76.8-60.169c28.425,16.162,54.306,36.437,76.8,60.169C322.123,353.468,308.632,358.383,294.688,358.4z
	 M167.772,331.793c-5.845-8.653-9.31-18.688-10.044-29.107l-4.48-56.388c29.517,5.7,58.129,15.351,85.077,28.681
	C212.435,290.765,188.721,309.871,167.772,331.793z M344.25,331.793c-20.949-21.931-44.672-41.037-70.562-56.823
	c26.948-13.329,55.561-22.98,85.077-28.681l-4.489,56.474C353.542,313.156,350.086,323.174,344.25,331.793L344.25,331.793z
	 M281.606,128h-51.2v-17.067h51.2V128z M230.406,375.467h51.2v17.067h-51.2V375.467z M409.12,223.488
	c-10.607,0.358-21.154,1.271-31.625,2.56l2.722-34.253c2.244-32.913-22.622-61.414-55.535-63.659
	c-1.348-0.094-2.705-0.137-4.062-0.137h-21.948v-17.067h8.533c10.812-0.043,20.429-6.878,24.03-17.067h17.843
	c29.065-0.06,53.939,20.847,58.88,49.493l13.85,79.693L409.12,223.488z M256.006,17.067c4.71,0,8.533,3.823,8.533,8.533h-17.067
	C247.473,20.89,251.296,17.067,256.006,17.067z M204.806,42.667h102.4c4.71,0,8.533,3.823,8.533,8.533v34.133
	c0,4.71-3.823,8.533-8.533,8.533h-102.4c-4.71,0-8.533-3.823-8.533-8.533V51.2C196.273,46.49,200.096,42.667,204.806,42.667z
	 M110.001,435.2c-42.419,0.009-76.8-34.372-76.809-76.791c0-4.412,0.375-8.823,1.135-13.167l36.13-207.727
	c7.748-44.996,46.814-77.85,92.476-77.781h16.273V76.8h-16.273c-37.359-0.06-69.316,26.829-75.665,63.642L51.147,348.16
	c-5.658,32.503,16.111,63.437,48.606,69.086c3.396,0.597,6.827,0.887,10.274,0.887h25.54c0.333,0.034,0.666,0.06,0.998,0.06h0.299
	l12.237-0.06c-5.436,5.103-10.249,10.837-14.336,17.067H110.001z M136.54,494.933V486.4c0.051-42.394,34.406-76.749,76.8-76.8
	h85.333c42.394,0.051,76.749,34.406,76.8,76.8v8.533H136.54z M460.806,407.834c-14.583,17.374-36.113,27.392-58.795,27.366h-24.747
	c-4.096-6.229-8.909-11.964-14.345-17.067l12.271,0.051h0.282c0.333,0,0.666-0.017,0.998-0.051h25.54
	c32.99,0.017,59.75-26.709,59.767-59.699c0-3.439-0.29-6.878-0.887-10.274l-36.147-207.718
	c-6.349-36.813-38.306-63.701-75.665-63.642h-16.273V59.733h16.273c45.662-0.068,84.727,32.785,92.476,77.781l36.13,207.727
	C481.594,367.573,475.416,390.494,460.806,407.834z"/>
<g>
</g>
<g>
</g>
<g>
</g>
<g>
</g>
<g>
</g>
<g>
</g>
<g>
</g>
<g>
</g>
<g>
</g>
<g>
</g>
<g>
</g>
<g>
</g>
<g>
</g>
<g>
</g>
<g>
</g>
</svg>
