<?xml version="1.0" encoding="iso-8859-1"?>
<!-- Generator: Adobe Illustrator 19.0.0, SVG Export Plug-In . SVG Version: 6.00 Build 0)  -->
<svg version="1.1" id="Capa_1" xmlns="http://www.w3.org/2000/svg" xmlns:xlink="http://www.w3.org/1999/xlink" x="0px" y="0px"
	 viewBox="0 0 512 512" style="enable-background:new 0 0 512 512;" xml:space="preserve">
<polygon style="fill:#6D6E71;" points="290.133,358.4 290.133,332.8 221.867,332.8 221.867,384 290.133,384 "/>
<path style="fill:#FFAF46;" d="M384,469.333c0-47.13-38.204-85.333-85.333-85.333h-85.333C166.204,384,128,422.204,128,469.333
	v34.133h256V469.333z"/>
<path style="fill:#FF5023;" d="M221.867,256l13.653-10.24c12.134-9.105,28.826-9.105,40.96,0L290.133,256l2.714-16.213
	c3.729-22.298-1.545-45.158-14.66-63.573L256,145.067l-22.118,30.967c-13.158,18.415-18.458,41.31-14.737,63.633L221.867,256z"/>
<g>
	<path style="fill:#6D6E71;" d="M307.2,332.8v-34.304c-1.195,0.085-2.475,0.171-3.755,0.171h-94.891c-1.28,0-2.56-0.085-3.755-0.171
		V332.8H307.2z"/>
	<circle style="fill:#6D6E71;" cx="392.533" cy="358.4" r="17.067"/>
</g>
<g>
	<path style="fill:#231F20;" d="M426.667,494.933h-34.133v-25.6c-0.06-51.814-42.052-93.807-93.867-93.867v-8.533h69.837
		c4.71,13.329,19.337,20.318,32.666,15.599c13.329-4.71,20.318-19.337,15.599-32.666c-4.71-13.329-19.337-20.318-32.666-15.599
		c-7.287,2.577-13.022,8.311-15.599,15.599h-69.837v-8.533h8.533c4.71,0,8.533-3.823,8.533-8.533v-26.931
		c32.265-6.75,52.949-38.374,46.199-70.639c-0.555-2.671-1.297-5.299-2.219-7.868l-33.621-81.143
		c-12.476-30.037-18.901-62.242-18.893-94.763V8.533c0-4.71-3.823-8.533-8.533-8.533h-85.333c-4.71,0-8.533,3.823-8.533,8.533
		v42.923c0.009,32.529-6.409,64.742-18.893,94.78l-33.809,81.604c-10.812,31.164,5.692,65.203,36.855,76.015
		c2.389,0.828,4.83,1.51,7.313,2.022V332.8c0,4.71,3.823,8.533,8.533,8.533h8.533v34.133c-51.814,0.06-93.807,42.052-93.867,93.867
		v25.6H85.333c-4.71,0-8.533,3.823-8.533,8.533c0,4.71,3.823,8.533,8.533,8.533h341.333c4.71,0,8.533-3.823,8.533-8.533
		C435.2,498.756,431.377,494.933,426.667,494.933z M392.533,349.867c4.71,0,8.533,3.823,8.533,8.533s-3.823,8.533-8.533,8.533
		S384,363.11,384,358.4S387.823,349.867,392.533,349.867z M298.667,324.267h-85.333V307.2h85.333V324.267z M172.962,270.985
		c-7.313-10.914-9.131-24.619-4.915-37.06l33.63-81.178c13.338-32.102,20.198-66.526,20.19-101.291V17.067h68.267v34.389
		c-0.009,34.765,6.852,69.188,20.19,101.291l33.442,80.666c7.731,22.263-4.053,46.575-26.317,54.298
		c-3.499,1.212-7.142,1.971-10.837,2.244l0,0c-0.99,0.077-100.164,0.077-101.154,0l0,0
		C192.247,289.084,180.215,282.061,172.962,270.985z M230.4,341.333h51.2v34.133h-51.2V341.333z M136.533,494.933v-25.6
		c0.051-42.394,34.406-76.749,76.8-76.8h85.333c42.394,0.051,76.749,34.406,76.8,76.8v25.6H136.533z"/>
	<path style="fill:#231F20;" d="M215.757,271.249l24.883-18.662c9.122-6.775,21.598-6.775,30.72,0l24.875,18.662l5.026-30.046
		c4.181-24.542-1.63-49.732-16.128-69.973L256,130.372l-29.073,40.704c-14.524,20.224-20.369,45.423-16.213,69.973L215.757,271.249z
		 M240.819,180.992L256,159.761l15.241,21.402c11.861,16.546,16.614,37.154,13.193,57.225l-0.393,2.364l-2.441-1.818
		c-15.198-11.29-36.002-11.29-51.2,0l-2.415,1.818l-0.418-2.483C224.162,218.172,228.932,197.547,240.819,180.992z"/>
</g>
<g>
</g>
<g>
</g>
<g>
</g>
<g>
</g>
<g>
</g>
<g>
</g>
<g>
</g>
<g>
</g>
<g>
</g>
<g>
</g>
<g>
</g>
<g>
</g>
<g>
</g>
<g>
</g>
<g>
</g>
</svg>
