<?xml version="1.0" encoding="iso-8859-1"?>
<!-- Generator: Adobe Illustrator 19.0.0, SVG Export Plug-In . SVG Version: 6.00 Build 0)  -->
<svg version="1.1" id="Capa_1" xmlns="http://www.w3.org/2000/svg" xmlns:xlink="http://www.w3.org/1999/xlink" x="0px" y="0px"
	 viewBox="0 0 512 512" style="enable-background:new 0 0 512 512;" xml:space="preserve">
<path style="fill:#ACABB1;" d="M273.067,25.6c0-9.429-7.637-17.067-17.067-17.067c-9.429,0-17.067,7.637-17.067,17.067v17.067
	h34.133V25.6z"/>
<path style="fill:#58595B;" d="M298.667,59.733c0-9.429-7.637-17.067-17.067-17.067h-51.2c-9.429,0-17.067,7.637-17.067,17.067V76.8
	h85.333V59.733z"/>
<polygon style="fill:#ACABB1;" points="213.334,76.8 76.801,162.133 119.467,162.133 256.001,162.133 392.534,162.133 
	435.201,162.133 298.667,76.8 "/>
<g>
	<path style="fill:#FFAF46;" d="M256.001,375.467h85.333l51.2-213.333H256.001V375.467z M324.267,196.267h24.969L314.42,341.333
		l34.816-145.067H324.267z"/>
	<path style="fill:#FFAF46;" d="M256.001,162.133H119.467l51.2,213.333h85.333V162.133z M162.766,196.267L162.766,196.267
		l34.816,145.067L162.766,196.267z"/>
</g>
<polygon style="fill:#ACABB1;" points="170.667,375.467 170.667,409.6 213.334,409.6 298.667,409.6 341.334,409.6 341.334,375.467 
	256.001,375.467 "/>
<rect x="238.934" y="452.267" style="fill:#414042;" width="34.133" height="51.2"/>
<path style="fill:#58595B;" d="M213.334,435.2c0,9.429,7.637,17.067,17.067,17.067h51.2c9.429,0,17.067-7.637,17.067-17.067v-25.6
	h-85.333V435.2z"/>
<path d="M439.723,154.897L307.201,72.073V59.733c0-14.14-11.46-25.6-25.6-25.6V25.6c0-14.14-11.46-25.6-25.6-25.6
	c-14.14,0-25.6,11.46-25.6,25.6v8.533c-14.14,0-25.6,11.46-25.6,25.6v12.339L72.278,154.897c-3.994,2.5-5.214,7.765-2.714,11.759
	c1.562,2.492,4.292,4.011,7.236,4.011h35.942l49.391,205.798V409.6c0,4.71,3.823,8.533,8.533,8.533h34.133V435.2
	c0,14.14,11.46,25.6,25.6,25.6V512h51.2v-51.2c14.14,0,25.6-11.46,25.6-25.6v-17.067h34.133c4.71,0,8.533-3.823,8.533-8.533v-33.135
	l49.391-205.798h35.942c4.71,0,8.533-3.823,8.533-8.533C443.734,159.189,442.215,156.459,439.723,154.897z M247.467,25.6
	c0-4.71,3.823-8.533,8.533-8.533c4.71,0,8.533,3.823,8.533,8.533v8.533h-17.067V25.6z M221.867,59.733
	c0-4.71,3.823-8.533,8.533-8.533h51.2c4.71,0,8.533,3.823,8.533,8.533v8.533h-68.267V59.733z M177.4,366.933l-47.104-196.267
	h117.171v196.267H177.4z M264.534,494.933h-17.067V460.8h17.067V494.933z M290.134,435.2c0,4.71-3.823,8.533-8.533,8.533h-51.2
	c-4.71,0-8.533-3.823-8.533-8.533v-17.067h68.267V435.2z M332.801,401.067h-153.6V384h153.6V401.067z M334.601,366.933h-70.067
	V170.667h117.171L334.601,366.933z M106.557,153.6l109.227-68.267h80.435L405.445,153.6H106.557z"/>
<path d="M312.432,349.636c0.657,0.154,1.323,0.23,1.997,0.23c3.942-0.009,7.364-2.714,8.286-6.545l34.816-145.067
	c1.101-4.582-1.724-9.19-6.306-10.283c-0.657-0.162-1.323-0.239-1.988-0.239h-24.969c-4.71,0-8.533,3.823-8.533,8.533
	s3.823,8.533,8.533,8.533h14.148l-32.29,134.545C305.025,343.927,307.849,348.535,312.432,349.636L312.432,349.636z"/>
<path d="M205.876,339.345L173.586,204.8h14.148c4.71,0,8.533-3.823,8.533-8.533s-3.823-8.533-8.533-8.533h-24.969
	c-4.71,0-8.533,3.823-8.533,8.533c0,0.666,0.077,1.331,0.239,1.988l34.816,145.067c0.922,3.831,4.343,6.537,8.286,6.545
	c0.674,0,1.34-0.077,1.997-0.23C204.152,348.535,206.977,343.927,205.876,339.345L205.876,339.345z"/>
<g>
</g>
<g>
</g>
<g>
</g>
<g>
</g>
<g>
</g>
<g>
</g>
<g>
</g>
<g>
</g>
<g>
</g>
<g>
</g>
<g>
</g>
<g>
</g>
<g>
</g>
<g>
</g>
<g>
</g>
</svg>
