<?xml version="1.0" encoding="iso-8859-1"?>
<!-- Generator: Adobe Illustrator 19.0.0, SVG Export Plug-In . SVG Version: 6.00 Build 0)  -->
<svg version="1.1" id="Capa_1" xmlns="http://www.w3.org/2000/svg" xmlns:xlink="http://www.w3.org/1999/xlink" x="0px" y="0px"
	 viewBox="0 0 512 512" style="enable-background:new 0 0 512 512;" xml:space="preserve">
<polygon style="fill:#6D6E71;" points="179.201,503.467 332.801,503.467 332.801,469.333 256.001,469.333 179.201,469.333 "/>
<polygon style="fill:#78B9EB;" points="307.201,8.533 204.801,8.533 170.668,179.2 221.663,179.2 256.001,179.2 341.334,179.2 "/>
<path style="fill:#FFDA44;" d="M213.334,256c0,4.71,3.823,8.533,8.533,8.533s8.533-3.823,8.533-8.533
	c0-4.71-3.823-8.533-8.533-8.533l0,0V256v-8.533C217.157,247.467,213.334,251.29,213.334,256z"/>
<path d="M315.564,6.827C314.753,2.85,311.254,0,307.201,0h-102.4c-4.053,0-7.552,2.85-8.363,6.827l-34.133,170.667
	c-0.939,4.617,2.039,9.122,6.656,10.069c0.563,0.111,1.135,0.171,1.707,0.171h42.479l0.188,53.598
	c-8.166,4.71-10.957,15.147-6.246,23.313c4.71,8.166,15.147,10.957,23.313,6.246c8.166-4.71,10.957-15.147,6.246-23.313
	c-1.502-2.594-3.652-4.753-6.246-6.246l-0.188-53.598h17.254V460.8h-68.267c-4.71,0-8.533,3.823-8.533,8.533v34.133
	c0,4.71,3.823,8.533,8.533,8.533h153.6c4.71,0,8.533-3.823,8.533-8.533v-34.133c0-4.71-3.823-8.533-8.533-8.533h-68.267V187.733
	h76.8c4.71,0,8.533-3.823,8.533-8.533c0-0.572-0.06-1.143-0.171-1.707L315.564,6.827z M324.268,494.933H187.734v-17.067h136.533
	V494.933z M181.078,170.667l30.72-153.6h88.414l30.72,153.6H181.078z"/>
<g>
</g>
<g>
</g>
<g>
</g>
<g>
</g>
<g>
</g>
<g>
</g>
<g>
</g>
<g>
</g>
<g>
</g>
<g>
</g>
<g>
</g>
<g>
</g>
<g>
</g>
<g>
</g>
<g>
</g>
</svg>
