<?xml version="1.0" encoding="iso-8859-1"?>
<!-- Generator: Adobe Illustrator 19.0.0, SVG Export Plug-In . SVG Version: 6.00 Build 0)  -->
<svg version="1.1" id="Capa_1" xmlns="http://www.w3.org/2000/svg" xmlns:xlink="http://www.w3.org/1999/xlink" x="0px" y="0px"
	 viewBox="0 0 512 512" style="enable-background:new 0 0 512 512;" xml:space="preserve">
<polygon style="fill:#78B9EB;" points="418.133,315.733 332.799,8.533 179.199,8.533 93.866,315.733 187.528,315.733 
	238.933,315.733 273.066,315.733 "/>
<g>
	<rect x="238.933" y="315.733" style="fill:#939598;" width="34.133" height="153.6"/>
	<polygon style="fill:#939598;" points="145.066,469.333 145.066,503.467 366.933,503.467 366.933,469.333 273.066,469.333 
		238.933,469.333 	"/>
</g>
<circle style="fill:#78B9EB;" cx="187.733" cy="401.067" r="17.067"/>
<path d="M426.35,313.446l-85.333-307.2C339.993,2.56,336.631,0,332.799,0h-153.6c-3.831,0-7.194,2.56-8.218,6.246l-85.333,307.2
	c-1.263,4.54,1.391,9.242,5.931,10.505c0.751,0.213,1.519,0.316,2.287,0.316h85.154l0.179,52.779
	c-13.329,4.71-20.318,19.337-15.599,32.666c4.71,13.329,19.337,20.318,32.666,15.599c13.329-4.71,20.318-19.337,15.599-32.666
	c-2.577-7.287-8.311-13.022-15.599-15.599l-0.179-52.779h34.313V460.8h-85.333c-4.71,0-8.533,3.823-8.533,8.533v34.133
	c0,4.71,3.823,8.533,8.533,8.533h221.867c4.71,0,8.533-3.823,8.533-8.533v-34.133c0-4.71-3.823-8.533-8.533-8.533h-85.333V324.267
	h136.533c4.71,0,8.533-3.823,8.533-8.533C426.666,314.957,426.555,314.189,426.35,313.446z M187.733,409.6
	c-4.71,0-8.533-3.823-8.533-8.533s3.823-8.533,8.533-8.533s8.533,3.823,8.533,8.533S192.443,409.6,187.733,409.6z M358.399,494.933
	h-204.8v-17.067h204.8V494.933z M264.533,460.8h-17.067V324.267h17.067V460.8z M105.087,307.2l80.597-290.133h140.629L406.911,307.2
	H105.087z"/>
<g>
</g>
<g>
</g>
<g>
</g>
<g>
</g>
<g>
</g>
<g>
</g>
<g>
</g>
<g>
</g>
<g>
</g>
<g>
</g>
<g>
</g>
<g>
</g>
<g>
</g>
<g>
</g>
<g>
</g>
</svg>
