<?xml version="1.0" encoding="iso-8859-1"?>
<!-- Generator: Adobe Illustrator 19.0.0, SVG Export Plug-In . SVG Version: 6.00 Build 0)  -->
<svg version="1.1" id="Capa_1" xmlns="http://www.w3.org/2000/svg" xmlns:xlink="http://www.w3.org/1999/xlink" x="0px" y="0px"
	 viewBox="0 0 511.996 511.996" style="enable-background:new 0 0 511.996 511.996;" xml:space="preserve">
<polygon style="fill:#939598;" points="239.368,249.597 239.95,249.597 272.05,249.597 272.632,249.597 272.632,183.069 
	256,183.069 239.368,183.069 "/>
<path style="fill:#96C9EF;" d="M222.736,307.809c0,36.757,14.886,66.528,33.264,66.528c18.378,0,33.264-29.771,33.264-66.528
	c0-25.114-6.902-46.902-17.214-58.212h-32.1C229.638,260.907,222.736,282.695,222.736,307.809z"/>
<polygon style="fill:#939598;" points="394.536,244.5 410.603,240.192 393.38,175.934 377.314,180.233 377.314,180.233 
	377.314,180.233 361.247,184.541 378.47,248.799 379.027,248.649 379.027,248.649 "/>
<path style="fill:#86D09A;" d="M410.037,240.342l-15.501,4.158l-15.509,4.158c-7.027,13.597-8.058,36.424-1.555,60.707
	c9.514,35.509,31.601,60.416,49.347,55.659c17.746-4.757,24.424-37.372,14.911-72.873
	C435.235,267.892,422.927,248.599,410.037,240.342z"/>
<polygon style="fill:#FFDA44;" points="379.027,248.649 379.027,248.649 394.536,244.5 "/>
<polygon style="fill:#939598;" points="101.397,240.192 117.464,244.5 132.973,248.649 132.973,248.649 133.53,248.799 
	150.753,184.541 134.686,180.233 134.686,180.233 134.686,180.233 118.62,175.934 "/>
<path style="fill:#FF7754;" d="M101.963,240.342c-12.89,8.258-25.198,27.518-31.692,51.775
	c-9.514,35.501-2.844,68.116,14.911,72.873s39.834-20.15,49.347-55.659c6.503-24.258,5.472-47.085-1.555-60.707l-15.509-4.158
	L101.963,240.342z"/>
<polygon style="fill:#FFDA44;" points="117.464,244.5 132.973,248.649 132.973,248.649 "/>
<g>
	<path style="fill:#231F20;" d="M256,449.181c-4.59,0-8.316-3.726-8.316-8.316v-33.264c0-4.59,3.726-8.316,8.316-8.316
		c4.59,0,8.316,3.726,8.316,8.316v33.264C264.316,445.456,260.59,449.181,256,449.181z"/>
	<path style="fill:#231F20;" d="M322.528,431.352c-2.977,0-5.721-1.58-7.21-4.158l-16.632-28.798
		c-2.32-3.958-0.998-9.056,2.969-11.376c3.958-2.32,9.056-0.998,11.376,2.969c0.017,0.033,0.042,0.067,0.058,0.1l16.632,28.798
		c2.295,3.975,0.931,9.064-3.044,11.36C325.414,430.969,323.983,431.352,322.528,431.352z"/>
	<path style="fill:#231F20;" d="M189.472,431.352c-4.59-0.008-8.316-3.734-8.308-8.324c0-1.455,0.383-2.886,1.114-4.15
		l16.632-28.798c2.27-3.992,7.343-5.389,11.343-3.118c4,2.27,5.389,7.343,3.119,11.343c-0.017,0.033-0.033,0.067-0.058,0.091
		l-16.632,28.798C195.193,429.772,192.441,431.352,189.472,431.352z"/>
	<path style="fill:#231F20;" d="M444.025,437.539c-3.759-0.008-7.044-2.536-8.017-6.17l-8.615-32.083
		c-1.189-4.441,1.439-8.998,5.879-10.187c4.441-1.189,8.998,1.439,10.187,5.879l8.607,32.133c1.181,4.432-1.447,8.99-5.879,10.179
		C445.48,437.473,444.748,437.556,444.025,437.539z"/>
	<path style="fill:#231F20;" d="M503.684,403.127c-2.204,0-4.324-0.873-5.879-2.437l-23.518-23.518
		c-3.193-3.301-3.102-8.565,0.2-11.759c3.227-3.11,8.333-3.11,11.559,0l23.518,23.518c3.243,3.252,3.243,8.516,0,11.759
		C508,402.254,505.888,403.127,503.684,403.127z"/>
	<path style="fill:#231F20;" d="M375.168,437.539c-0.732,0-1.455-0.1-2.162-0.291c-4.432-1.189-7.06-5.746-5.879-10.179
		l8.624-32.108c1.039-4.474,5.513-7.252,9.988-6.212c4.474,1.039,7.252,5.513,6.212,9.988c-0.042,0.183-0.091,0.366-0.15,0.549
		l-8.565,32.108C382.245,435.036,378.936,437.556,375.168,437.539z"/>
	<path style="fill:#231F20;" d="M504.89,68.05c-1.705-4.266-6.536-6.345-10.802-4.64c0,0,0,0-0.008,0
		C451.285,80.533,357.838,91.593,256,91.593S60.715,80.533,17.921,63.41c-4.266-1.705-9.106,0.374-10.811,4.64
		s0.374,9.106,4.64,10.811c28.657,11.459,76.69,20.166,134.786,25.015l-17.771,66.179l-8.042-2.154
		c-4.432-1.181-8.99,1.447-10.179,5.879l-16.632,62.212c-15.917,14.254-26.994,33.123-31.676,53.971
		c-4.857,16.823-5.838,34.528-2.877,51.784c3.468,17.006,11.875,28.116,23.667,31.277c2.187,0.582,4.432,0.882,6.694,0.873
		c21.006,0,42.861-25.181,52.84-62.412c6.37-20.399,6.212-42.27-0.449-62.578l16.632-62.212c1.189-4.432-1.439-8.998-5.879-10.187
		l0,0l-8.033-2.154l18.536-69.189c26.545,1.821,54.886,2.836,84.274,3.002v66.586h-8.274c-4.59,0-8.316,3.726-8.316,8.316v64.416
		c-11.692,17.888-17.505,38.977-16.632,60.324c0,42.669,17.871,74.844,41.58,74.844s41.58-32.175,41.58-74.844
		c0.873-21.347-4.94-42.437-16.632-60.324v-64.416c0-4.59-3.726-8.316-8.316-8.316h-8.316v-66.586
		c29.355-0.166,57.73-1.181,84.274-3.002l18.536,69.189l-8.033,2.154c-4.432,1.189-7.069,5.746-5.879,10.187l0,0l16.715,62.212
		c-6.661,20.308-6.819,42.179-0.449,62.578c9.979,37.231,31.834,62.42,52.84,62.412c2.245,0,4.482-0.291,6.653-0.873
		c11.792-3.16,20.2-14.27,23.667-31.277c2.96-17.256,1.979-34.96-2.877-51.784c-4.682-20.848-15.759-39.717-31.676-53.971
		l-16.674-62.212c-1.189-4.432-5.746-7.06-10.179-5.879l-8.042,2.154l-17.73-66.179c58.096-4.848,106.129-13.555,134.786-25.015
		C504.516,77.157,506.595,72.325,504.89,68.05C504.89,68.059,504.89,68.05,504.89,68.05z M124.499,186.138l16.067,4.308
		l-12.915,48.191l-16.067-4.299L124.499,186.138z M126.503,307.211c-8.624,32.175-27.667,52.798-39.168,49.771
		c-5.231-1.405-9.605-8.316-11.692-18.536c-2.445-14.728-1.53-29.821,2.661-44.15c3.867-17.123,12.665-32.732,25.306-44.906
		l23.401,6.262c4.865,16.857,4.69,34.778-0.507,51.534V307.211z M247.684,191.385h16.632v49.896h-16.632V191.385z M256,366.021
		c-11.775,0-24.948-24.89-24.948-58.212c-0.682-17.53,3.775-34.877,12.84-49.896h24.216c9.064,15.019,13.522,32.366,12.84,49.896
		C280.948,341.132,267.775,366.021,256,366.021z M433.696,294.271c4.191,14.328,5.098,29.422,2.653,44.15
		c-2.079,10.204-6.453,17.131-11.684,18.536c-11.26,3.027-30.536-17.597-39.168-49.771c-5.198-16.765-5.38-34.694-0.507-51.559
		l23.401-6.262C421.031,261.539,429.83,277.148,433.696,294.271z M400.432,234.312l-16.066,4.299l-12.915-48.191l16.067-4.308
		L400.432,234.312z"/>
	<path style="fill:#231F20;" d="M67.975,437.539c-0.732,0-1.455-0.1-2.162-0.291c-4.432-1.189-7.06-5.746-5.879-10.179l8.607-32.108
		c1.198-4.441,5.755-7.069,10.195-5.871c4.441,1.198,7.069,5.755,5.871,10.195l-8.615,32.125
		C75.002,435.028,71.717,437.539,67.975,437.539z"/>
	<path style="fill:#231F20;" d="M8.316,403.127c-4.59,0-8.316-3.726-8.316-8.316c0-2.204,0.873-4.316,2.437-5.879l23.518-23.518
		c3.193-3.301,8.457-3.393,11.759-0.208c3.301,3.193,3.393,8.457,0.208,11.759c-0.067,0.066-0.133,0.133-0.208,0.208l-23.518,23.518
		C12.632,402.254,10.52,403.127,8.316,403.127z"/>
	<path style="fill:#231F20;" d="M136.832,437.539c-3.759-0.008-7.052-2.536-8.025-6.17l-8.607-32.083
		c-1.04-4.474,1.738-8.948,6.212-9.988c4.258-0.99,8.557,1.48,9.838,5.663l8.607,32.133c1.181,4.432-1.447,8.99-5.879,10.179
		C138.279,437.456,137.555,437.547,136.832,437.539z"/>
</g>
<g>
</g>
<g>
</g>
<g>
</g>
<g>
</g>
<g>
</g>
<g>
</g>
<g>
</g>
<g>
</g>
<g>
</g>
<g>
</g>
<g>
</g>
<g>
</g>
<g>
</g>
<g>
</g>
<g>
</g>
</svg>
