<?xml version="1.0" encoding="iso-8859-1"?>
<!-- Generator: Adobe Illustrator 19.0.0, SVG Export Plug-In . SVG Version: 6.00 Build 0)  -->
<svg version="1.1" id="Capa_1" xmlns="http://www.w3.org/2000/svg" xmlns:xlink="http://www.w3.org/1999/xlink" x="0px" y="0px"
	 viewBox="0 0 511.992 511.992" style="enable-background:new 0 0 511.992 511.992;" xml:space="preserve">
<path style="fill:#ACABB1;" d="M273.074,51.232c0-9.435-7.642-17.077-17.077-17.077c-9.435,0-17.077,7.642-17.077,17.077V68.31
	h34.155V51.232z"/>
<g>
	<path style="fill:#6D6E71;" d="M315.768,102.465c9.435,0,17.077-7.642,17.077-17.077s-7.642-17.077-17.077-17.077H196.226
		c-9.435,0-17.077,7.642-17.077,17.077s7.642,17.077,17.077,17.077H315.768z"/>
	<path style="fill:#6D6E71;" d="M315.768,204.93c9.435,0,17.077-7.642,17.077-17.077c0-9.435-7.642-17.077-17.077-17.077H196.226
		c-9.435,0-17.077,7.642-17.077,17.077c0,9.435,7.642,17.077,17.077,17.077H315.768z"/>
</g>
<g>
	<rect x="204.764" y="102.465" style="fill:#ACABB1;" width="102.465" height="68.31"/>
	<rect x="204.764" y="204.93" style="fill:#ACABB1;" width="102.465" height="34.155"/>
</g>
<polygon style="fill:#6D6E71;" points="196.226,324.472 222.346,324.472 255.997,324.472 315.768,324.472 443.849,324.472 
	307.229,239.085 204.764,239.085 68.145,324.472 "/>
<g>
	<path style="fill:#FFAF46;" d="M221.842,401.321c0,9.435,7.642,17.077,17.077,17.077h17.077v-34.155h-17.077
		C229.484,384.243,221.842,391.886,221.842,401.321z"/>
	<path style="fill:#FFAF46;" d="M273.074,452.553c9.435,0,17.078-7.642,17.078-17.077s-7.642-17.077-17.077-17.077h-17.077v34.155
		H273.074z"/>
	<path style="fill:#FFAF46;" d="M255.997,350.088h17.077c9.435,0,17.078,7.642,17.078,17.077s-7.642,17.077-17.077,17.077h-17.077
		v34.155h17.077c9.435,0,17.077,7.642,17.077,17.077s-7.642,17.077-17.077,17.077h-17.077l0,0l0,0v-34.155h-17.077
		c-9.435,0-17.077-7.642-17.077-17.077s7.642-17.077,17.077-17.077h17.077L255.997,350.088h-16.958
		c-9.435,0-17.077-7.642-17.077-17.077c0-0.085,0-0.162,0-0.248c-0.068-2.767,0.06-5.542,0.384-8.291h-26.12l-8.539,111.004
		c0,37.724,30.586,68.31,68.31,68.31s68.31-30.586,68.31-68.31l-8.539-111.004h-59.771L255.997,350.088L255.997,350.088z"/>
	<path style="fill:#FFAF46;" d="M239.039,350.088h16.958v-25.616h-33.651c-0.324,2.749-0.453,5.525-0.384,8.291
		c-0.137,9.427,7.395,17.189,16.83,17.325C238.868,350.088,238.954,350.088,239.039,350.088z"/>
	<path style="fill:#FFAF46;" d="M273.074,384.243c9.435,0,17.078-7.642,17.078-17.077s-7.642-17.077-17.077-17.077h-17.077v34.155
		H273.074z"/>
</g>
<path d="M448.375,317.231l-132.607-82.877v-20.886c14.149,0,25.616-11.468,25.616-25.616c0-14.149-11.468-25.616-25.616-25.616
	v-51.232c14.149,0,25.616-11.468,25.616-25.616s-11.468-25.616-25.616-25.616h-34.155v-8.539
	c-0.043-10.819-6.882-20.442-17.077-24.045V8.539c0-4.713-3.825-8.539-8.539-8.539c-4.713,0-8.539,3.825-8.539,8.539v18.649
	c-10.195,3.603-17.035,13.227-17.077,24.045v8.539h-34.155c-14.149,0-25.616,11.468-25.616,25.616s11.468,25.616,25.616,25.616
	v51.232c-14.149,0-25.616,11.468-25.616,25.616c0,14.149,11.468,25.616,25.616,25.616v20.886L63.619,317.231
	c-3.996,2.502-5.217,7.77-2.715,11.766c1.563,2.493,4.295,4.013,7.241,4.013h118.859l-7.856,102.465
	c0.179,42.446,34.736,76.704,77.173,76.516c42.438-0.188,76.703-34.736,76.524-77.173l-7.856-101.807h118.859
	c4.713,0,8.539-3.825,8.539-8.539C452.388,321.526,450.868,318.794,448.375,317.231z M247.458,51.232
	c0-4.713,3.825-8.539,8.539-8.539s8.539,3.825,8.539,8.539v8.539h-17.077V51.232z M187.687,85.387c0-4.713,3.825-8.539,8.539-8.539
	h119.542c4.713,0,8.539,3.825,8.539,8.539s-3.825,8.539-8.539,8.539H196.226C191.512,93.926,187.687,90.101,187.687,85.387z
	 M213.303,111.004h85.387v51.232h-85.387L213.303,111.004L213.303,111.004z M187.687,187.852c0-4.713,3.825-8.539,8.539-8.539
	h119.542c4.713,0,8.539,3.825,8.539,8.539c0,4.713-3.825,8.539-8.539,8.539H196.226
	C191.512,196.391,187.687,192.566,187.687,187.852z M298.691,213.469v17.077h-85.387v-17.077H298.691z M315.768,435.476
	c0.179,33.011-26.436,59.916-59.447,60.096c-33.011,0.179-59.916-26.436-60.096-59.438l7.907-103.122h9.324
	c-0.034,14.106,11.374,25.582,25.48,25.616c0.043,0,0.094,0,0.137,0h8.385v17.077h-8.539c-14.149,0-25.616,11.467-25.616,25.616
	s11.468,25.616,25.616,25.616h8.539v17.077h-8.539c-4.713,0-8.539,3.825-8.539,8.539s3.825,8.539,8.539,8.539h8.539v8.539
	c0,4.713,3.825,8.539,8.539,8.539s8.539-3.825,8.539-8.539v-8.539h8.539c14.149,0,25.616-11.467,25.616-25.616
	s-11.467-25.616-25.616-25.616h-8.539v-17.077h8.539c14.149,0,25.616-11.468,25.616-25.616s-11.467-25.616-25.616-25.616h-8.539
	v-8.539h43.326L315.768,435.476z M247.458,333.011v8.539h-8.419c-4.679,0.034-8.505-3.74-8.539-8.419c0-0.043,0-0.077,0-0.12
	H247.458z M264.536,358.627h8.539c4.713,0,8.539,3.825,8.539,8.539s-3.825,8.539-8.539,8.539h-8.539V358.627L264.536,358.627z
	 M247.458,392.782v17.077h-8.539c-4.713,0-8.539-3.825-8.539-8.539s3.825-8.539,8.539-8.539H247.458z M264.536,426.937h8.539
	c4.713,0,8.539,3.825,8.539,8.539s-3.825,8.539-8.539,8.539h-8.539V426.937L264.536,426.937z M97.919,315.933l109.296-68.31h97.564
	l109.296,68.31H97.919z"/>
<g>
</g>
<g>
</g>
<g>
</g>
<g>
</g>
<g>
</g>
<g>
</g>
<g>
</g>
<g>
</g>
<g>
</g>
<g>
</g>
<g>
</g>
<g>
</g>
<g>
</g>
<g>
</g>
<g>
</g>
</svg>
