<?xml version="1.0" encoding="iso-8859-1"?>
<!-- Generator: Adobe Illustrator 19.0.0, SVG Export Plug-In . SVG Version: 6.00 Build 0)  -->
<svg version="1.1" id="Capa_1" xmlns="http://www.w3.org/2000/svg" xmlns:xlink="http://www.w3.org/1999/xlink" x="0px" y="0px"
	 viewBox="0 0 512 512" style="enable-background:new 0 0 512 512;" xml:space="preserve">
<polygon style="fill:#939598;" points="110.933,42.667 256,42.667 401.067,42.667 460.8,42.667 460.8,8.533 51.2,8.533 51.2,42.667 
	"/>
<path style="fill:#FFAF46;" d="M230.4,379.955c-0.06,5.777-2.995,11.145-7.834,14.302c-17.041,11.426-26.991,30.839-26.3,51.345
	c1.34,31.59,26.795,56.815,58.402,57.865c32.981,0.683,60.271-25.498,60.962-58.479c0.418-20.284-9.481-39.39-26.3-50.748
	c-4.804-3.157-7.706-8.516-7.731-14.268v-4.506h-51.2V379.955z"/>
<polygon style="fill:#939598;" points="230.4,375.467 281.6,375.467 281.6,307.2 256,307.2 230.4,307.2 "/>
<path style="fill:#FFAF46;" d="M375.467,277.555c-0.06,5.777-2.995,11.145-7.834,14.302c-17.041,11.426-26.991,30.839-26.3,51.345
	c1.34,31.59,26.795,56.815,58.402,57.865c32.981,0.683,60.271-25.498,60.962-58.479c0.418-20.284-9.481-39.39-26.3-50.748
	c-4.804-3.157-7.706-8.516-7.731-14.268v-4.506h-51.2L375.467,277.555L375.467,277.555z"/>
<polygon style="fill:#939598;" points="375.467,273.067 426.667,273.067 426.667,204.8 401.067,204.8 375.467,204.8 "/>
<path style="fill:#FFAF46;" d="M85.333,226.355c-0.06,5.777-2.995,11.145-7.834,14.302c-17.041,11.426-26.991,30.839-26.3,51.345
	c1.34,31.59,26.795,56.815,58.402,57.865c32.981,0.683,60.271-25.498,60.962-58.479c0.418-20.284-9.481-39.39-26.3-50.748
	c-4.804-3.157-7.706-8.516-7.731-14.268v-4.506h-51.2L85.333,226.355L85.333,226.355z"/>
<polygon style="fill:#939598;" points="85.333,221.867 136.533,221.867 136.533,153.6 110.933,153.6 85.333,153.6 "/>
<path style="fill:#231F20;" d="M503.467,0H8.533C3.823,0,0,3.823,0,8.533s3.823,8.533,8.533,8.533h34.133v25.6
	c0,4.71,3.823,8.533,8.533,8.533h51.2v93.867H85.333c-4.71,0-8.533,3.823-8.533,8.533v72.755c-0.068,2.935-1.596,5.641-4.07,7.219
	c-19.49,13.056-30.857,35.251-30.063,58.692c1.51,36.122,30.618,64.956,66.748,66.133h1.519c37.7-0.034,68.241-30.618,68.207-68.326
	c-0.017-22.699-11.324-43.904-30.148-56.576c-2.415-1.57-3.891-4.241-3.925-7.125V153.6c0-4.71-3.823-8.533-8.533-8.533h-17.067
	V51.2h128v247.467H230.4c-4.71,0-8.533,3.823-8.533,8.533v72.755c-0.068,2.935-1.596,5.641-4.07,7.219
	c-19.49,13.056-30.857,35.251-30.063,58.692c1.51,36.122,30.618,64.956,66.748,66.133H256c37.7-0.034,68.241-30.618,68.207-68.326
	c-0.017-22.699-11.324-43.904-30.148-56.576c-2.415-1.57-3.891-4.241-3.925-7.125V307.2c0-4.71-3.823-8.533-8.533-8.533h-17.067
	V51.2h128v145.067h-17.067c-4.71,0-8.533,3.823-8.533,8.533v72.755c-0.068,2.935-1.596,5.641-4.07,7.219
	c-19.49,13.056-30.857,35.251-30.063,58.692c1.51,36.122,30.618,64.956,66.748,66.133h1.519c37.7-0.034,68.241-30.618,68.207-68.326
	c-0.017-22.699-11.324-43.904-30.148-56.576c-2.415-1.57-3.891-4.241-3.925-7.125V204.8c0-4.71-3.823-8.533-8.533-8.533H409.6V51.2
	h51.2c4.71,0,8.533-3.823,8.533-8.533v-25.6h34.133c4.71,0,8.533-3.823,8.533-8.533S508.177,0,503.467,0z M162.133,290.133
	c0.051,13.781-5.487,26.991-15.36,36.608c-9.762,9.805-23.168,15.087-36.992,14.592c-27.093-0.879-48.922-22.502-50.048-49.587
	c-0.606-17.57,7.902-34.219,22.502-44.015c5.939-3.994,9.967-10.266,11.119-17.331h35.149c1.118,7.04,5.111,13.295,11.017,17.271
	C153.677,257.161,162.159,273.092,162.133,290.133z M128,213.333H93.867v-51.2H128V213.333z M307.2,443.733
	c0.051,13.781-5.487,26.991-15.36,36.608c-9.779,9.779-23.168,15.061-36.992,14.592c-27.093-0.879-48.922-22.502-50.048-49.587
	c-0.606-17.57,7.902-34.219,22.502-44.015c5.939-3.994,9.967-10.266,11.119-17.331h35.149c1.118,7.04,5.111,13.295,11.017,17.271
	C298.743,410.761,307.226,426.692,307.2,443.733z M273.067,366.933h-34.133v-51.2h34.133V366.933z M452.267,341.333
	c0.051,13.781-5.487,26.991-15.36,36.608c-9.788,9.762-23.177,15.036-36.992,14.592c-27.093-0.879-48.922-22.502-50.048-49.587
	c-0.606-17.57,7.902-34.219,22.502-44.015c5.939-3.994,9.967-10.266,11.119-17.331h35.149c1.118,7.04,5.111,13.295,11.017,17.271
	C443.81,308.361,452.292,324.292,452.267,341.333z M418.133,264.533H384v-51.2h34.133V264.533z M452.267,34.133H59.733V17.067
	h392.533V34.133z"/>
<g>
</g>
<g>
</g>
<g>
</g>
<g>
</g>
<g>
</g>
<g>
</g>
<g>
</g>
<g>
</g>
<g>
</g>
<g>
</g>
<g>
</g>
<g>
</g>
<g>
</g>
<g>
</g>
<g>
</g>
</svg>
