<?xml version="1.0" encoding="iso-8859-1"?>
<!-- Generator: Adobe Illustrator 19.0.0, SVG Export Plug-In . SVG Version: 6.00 Build 0)  -->
<svg version="1.1" id="Capa_1" xmlns="http://www.w3.org/2000/svg" xmlns:xlink="http://www.w3.org/1999/xlink" x="0px" y="0px"
	 viewBox="0 0 512 512" style="enable-background:new 0 0 512 512;" xml:space="preserve">
<g>
	<path style="fill:#FFDA44;" d="M256,366.933c14.14,0,25.6-15.283,25.6-34.133h-51.2C230.4,351.65,241.861,366.933,256,366.933z"/>
	<path style="fill:#FFDA44;" d="M230.4,332.8h221.867L272.384,145.067h-32.768L59.734,332.8H230.4z"/>
</g>
<path style="fill:#939598;" d="M273.067,145.067v-34.133c-0.068-9.395-7.671-16.998-17.067-17.067
	c-9.412,0.026-17.041,7.654-17.067,17.067v34.133H273.067z"/>
<g>
	<path style="fill:#231F20;" d="M256,512c-4.71,0-8.533-3.823-8.533-8.533v-102.4c0-4.71,3.823-8.533,8.533-8.533
		c4.71,0,8.533,3.823,8.533,8.533v102.4C264.534,508.177,260.711,512,256,512z"/>
	<path style="fill:#231F20;" d="M135.313,462.012c-4.71,0-8.533-3.823-8.533-8.533c0-2.261,0.896-4.429,2.5-6.033l72.414-72.405
		c3.277-3.388,8.678-3.482,12.066-0.213c3.388,3.277,3.482,8.678,0.213,12.066c-0.068,0.068-0.137,0.145-0.213,0.213l-72.414,72.405
		C139.751,461.116,137.575,462.012,135.313,462.012z"/>
	<path style="fill:#231F20;" d="M376.687,462.012c-2.261,0-4.437-0.896-6.033-2.5l-72.414-72.405
		c-3.388-3.277-3.482-8.678-0.205-12.066c3.277-3.388,8.678-3.482,12.066-0.205c0.068,0.068,0.137,0.137,0.205,0.205l72.414,72.405
		c3.328,3.337,3.328,8.738,0,12.066C381.116,461.116,378.949,462.012,376.687,462.012z"/>
	<path style="fill:#231F20;" d="M458.428,326.895L281.6,142.353v-31.42c-0.017-10.82-6.852-20.463-17.067-24.047V8.533
		C264.534,3.823,260.711,0,256,0c-4.71,0-8.533,3.823-8.533,8.533v78.37c-10.189,3.601-17.024,13.218-17.067,24.03v31.42
		L53.573,326.895c-3.26,3.405-3.149,8.806,0.256,12.066c1.587,1.519,3.703,2.372,5.905,2.372h162.825
		c3.174,19.447,16.956,34.133,33.442,34.133s30.268-14.686,33.442-34.133h162.825c4.71,0,8.533-3.823,8.533-8.533
		C460.8,330.598,459.947,328.482,458.428,326.895z M247.467,110.933c0-4.71,3.823-8.533,8.533-8.533
		c2.304-0.009,4.506,0.939,6.084,2.611c1.579,1.562,2.466,3.695,2.449,5.922v25.6h-17.067V110.933z M256,358.4
		c-7.262,0-13.568-7.253-15.983-17.067h31.966C269.568,351.147,263.262,358.4,256,358.4z M79.727,324.267L243.26,153.6h25.481
		l163.533,170.667H79.727z"/>
	<path style="fill:#231F20;" d="M230.4,187.733c0,4.71,3.823,8.533,8.533,8.533h34.133c4.71,0,8.533-3.823,8.533-8.533
		c0-4.71-3.823-8.533-8.533-8.533h-34.133C234.223,179.2,230.4,183.023,230.4,187.733z"/>
</g>
<g>
</g>
<g>
</g>
<g>
</g>
<g>
</g>
<g>
</g>
<g>
</g>
<g>
</g>
<g>
</g>
<g>
</g>
<g>
</g>
<g>
</g>
<g>
</g>
<g>
</g>
<g>
</g>
<g>
</g>
</svg>
