<?xml version="1.0" encoding="iso-8859-1"?>
<!-- Generator: Adobe Illustrator 19.0.0, SVG Export Plug-In . SVG Version: 6.00 Build 0)  -->
<svg version="1.1" id="Capa_1" xmlns="http://www.w3.org/2000/svg" xmlns:xlink="http://www.w3.org/1999/xlink" x="0px" y="0px"
	 viewBox="0 0 512.002 512.002" style="enable-background:new 0 0 512.002 512.002;" xml:space="preserve">
<path style="fill:#FF9811;" d="M159.396,196.736l-11.389-6.556l-42.862-24.747l-1.825-1.056
	c-11.668,20.21-4.74,46.047,15.462,57.715c20.21,11.668,46.047,4.74,57.715-15.47l-12.006-6.928L159.396,196.736z"/>
<g>
	<path style="fill:#FFDA44;" d="M164.525,199.694l12.006,6.928l0,0L164.525,199.694z"/>
	<path style="fill:#FFDA44;" d="M148.007,190.18l11.355,6.556L148.007,190.18z"/>
	<path style="fill:#FFDA44;" d="M176.531,206.622l43.935,25.347L176.531,206.622z"/>
	<path style="fill:#FFDA44;" d="M103.354,164.377L103.354,164.377l1.825,1.056L103.354,164.377z"/>
	<path style="fill:#FFDA44;" d="M67.37,143.626l-7.917-4.571L67.37,143.626z"/>
	<path style="fill:#FFDA44;" d="M87.318,155.117l16.053,9.294l0,0L87.318,155.117z"/>
</g>
<polygon style="fill:#FFAF46;" points="304.313,469.757 211.374,469.757 211.374,503.553 481.742,503.553 481.742,469.757 
	405.701,469.757 "/>
<g>
	<path style="fill:#FFDA44;" d="M159.396,196.736l5.129,2.957L159.396,196.736z"/>
	<path style="fill:#FFDA44;" d="M87.318,155.117L67.37,143.626L87.318,155.117z"/>
	<path style="fill:#FFDA44;" d="M105.179,165.433l42.828,24.747L105.179,165.433z"/>
</g>
<g>
	<path style="fill:#FFAF46;" d="M186.416,105.014c-44.45-25.668-101.295-10.443-126.963,34.007v0.008l7.917,4.571l19.948,11.516
		l16.053,9.294l0,0l1.825,1.056l42.811,24.713l11.355,6.556l5.129,2.957l12.006,6.928l0,0l43.935,25.347
		c25.676-44.416,10.485-101.236-33.931-126.904C186.475,105.048,186.441,105.031,186.416,105.014z"/>
	<path style="fill:#FFAF46;" d="M244.427,21.437l-14.634-8.449c-16.163-9.336-36.829-3.81-46.174,12.352l0,0l-38.865,67.313
		c29.749,1.563,56.946,17.27,73.177,42.245l38.865-67.313C266.115,51.431,260.581,30.773,244.427,21.437z"/>
</g>
<path style="fill:#FFDA44;" d="M393.788,156.469L252.605,74.936l-16.898,29.233l144.731,83.56c0.524-7.79,2.805-15.352,6.675-22.136
	C389.006,162.324,391.245,159.265,393.788,156.469z"/>
<path style="fill:#FFAF46;" d="M435.019,241.465c27.915-2.18,48.776-26.572,46.596-54.479c-1.301-16.67-10.739-31.625-25.22-39.981
	c-20.531-11.769-46.469-7.849-62.607,9.463c-2.543,2.797-4.782,5.855-6.675,9.125c-3.87,6.785-6.151,14.346-6.675,22.136
	c-1.141,17.836,7.207,34.953,21.967,45.033c1.056,0.769,2.155,1.479,3.295,2.112C414.581,239.995,424.804,242.293,435.019,241.465z
	 M431.048,174.042c9.336,0,16.898,7.562,16.898,16.898s-7.562,16.898-16.898,16.898s-16.898-7.562-16.898-16.898
	S421.712,174.042,431.048,174.042z"/>
<path style="fill:#FFDA44;" d="M384.832,428.779l50.187-187.314c-10.215,0.82-20.438-1.479-29.318-6.59
	c-1.141-0.634-2.239-1.343-3.295-2.112l-50.018,186.469c0.862-0.144,1.74-0.203,2.619-0.169
	C365.729,419.021,376.189,422.426,384.832,428.779z"/>
<path style="fill:#FFAF46;" d="M384.832,428.779c-8.643-6.354-19.095-9.759-29.825-9.716c-0.879-0.034-1.757,0.025-2.619,0.169
	c-26.927,1.343-48.075,23.564-48.075,50.525h101.388C405.718,453.543,397.953,438.301,384.832,428.779z"/>
<circle style="fill:#FFDA44;" cx="431.065" cy="190.94" r="16.898"/>
<g>
	<path style="fill:#231F20;" d="M481.742,461.308h-68.276c-1.994-13.73-8.745-26.319-19.069-35.579l47.314-176.685
		c32.115-5.804,53.44-36.533,47.644-68.648c-5.804-32.115-36.533-53.44-68.648-47.644c-10.35,1.867-20.016,6.472-28,13.324
		L264.113,71.81c11.634-20.21,4.715-46.022-15.462-57.707l-14.634-8.449c-20.21-11.643-46.03-4.731-57.715,15.462l-36.381,63.029
		c-36.246-0.101-69.755,19.255-87.785,50.694c-0.558,0.972-0.921,2.045-1.056,3.151c-0.439,3.38,1.2,6.692,4.148,8.398
		l37.243,21.503c-9.775,26.192,3.523,55.349,29.715,65.125c9.894,3.692,20.7,4.199,30.889,1.453
		c10.147-2.729,19.188-8.576,25.837-16.712l37.302,21.536c4.039,2.332,9.209,0.946,11.541-3.101l0,0
		c18.106-31.303,18.055-69.907-0.127-101.168l11.153-19.281l133.24,76.886c0.482,16.729,8.035,32.478,20.776,43.335l-47.086,175.494
		c-25.575,3.988-45.54,24.223-49.182,49.849h-85.157c-4.664,0-8.449,3.785-8.449,8.449v33.796c0,4.664,3.785,8.449,8.449,8.449
		h270.367c4.664,0,8.449-3.785,8.449-8.449v-33.796C490.191,465.093,486.406,461.308,481.742,461.308z M190.945,29.565
		c6.987-12.133,22.491-16.298,34.615-9.311c0.008,0.008,0.017,0.008,0.025,0.017l14.634,8.449
		c12.133,6.987,16.298,22.491,9.311,34.615c-0.008,0.008-0.008,0.017-0.017,0.025l-32.453,56.22c-2.104-2.45-4.36-4.782-6.692-7.03
		c-0.6-0.575-1.242-1.115-1.867-1.69c-2.07-1.901-4.216-3.718-6.447-5.441c-0.803-0.625-1.597-1.242-2.416-1.842
		c-5.754-4.292-11.989-7.883-18.588-10.713c-0.929-0.406-1.859-0.786-2.788-1.166c-2.619-1.073-5.281-2.028-7.976-2.881
		c-0.786-0.245-1.563-0.532-2.357-0.76c-3.118-0.896-6.261-1.69-9.446-2.281L190.945,29.565z M144.34,101.094
		c13.332,0.667,26.319,4.529,37.843,11.271c4.005,2.357,7.807,5.036,11.372,8.01c6.734,5.441,12.564,11.913,17.287,19.171
		c15.698,24.088,18.005,54.53,6.134,80.713l-145.618-84.11c16.763-23.361,44.273-36.567,72.982-35.038V101.094z M148.691,218.129
		c-17.963,4.858-36.466-5.771-41.316-23.742c-1.58-5.855-1.555-12.023,0.076-17.861l56.465,32.596
		c-4.174,4.317-9.429,7.435-15.225,9.024V218.129z M255.698,86.477l125.552,72.509c-0.515,0.803-1.014,1.622-1.487,2.442
		c-1.141,2.028-2.171,4.115-3.084,6.252c-0.321,0.743-0.541,1.504-0.845,2.256c-0.541,1.403-1.09,2.805-1.512,4.224l-0.084,0.228
		l-126.98-73.312L255.698,86.477z M388.862,188.296c0.439-6.497,2.34-12.817,5.568-18.478c1.588-2.721,3.456-5.272,5.576-7.604
		c15.918-17.092,42.684-18.039,59.777-2.121c14.38,13.392,17.641,34.92,7.874,51.97l0,0c-11.71,20.159-37.505,27.071-57.732,15.479
		c-0.946-0.532-1.859-1.115-2.729-1.757C394.929,217.377,387.967,203.149,388.862,188.296z M407.78,245.343
		c0.101,0.051,0.211,0.068,0.313,0.11c2.467,1.048,5.01,1.926,7.604,2.628c0.253,0.068,0.524,0.093,0.786,0.152
		c2.357,0.6,4.748,1.056,7.156,1.36c0.135,0,0.27,0.059,0.406,0.076l-44.535,166.225c-1.183-0.541-2.433-0.896-3.658-1.352
		c-1.225-0.456-2.188-0.887-3.32-1.242c-1.8-0.549-3.642-0.938-5.492-1.318c-1.073-0.22-2.121-0.515-3.211-0.684
		c-0.186,0-0.372-0.093-0.558-0.118L407.78,245.343z M352.785,427.673c0.194,0,0.989-0.118,1.174-0.144c0.338,0,0.684,0,1.048,0
		c8.939-0.051,17.658,2.797,24.857,8.103c8.517,6.202,14.422,15.352,16.543,25.676h-82.8
		C317.409,442.441,333.555,428.577,352.785,427.673z M473.293,495.104h-253.47v-16.898h253.47V495.104z"/>
	<path style="fill:#231F20;" d="M106.142,244.042c-4.039-2.332-9.209-0.946-11.541,3.092l-25.347,43.935
		c-2.332,4.047-0.946,9.209,3.092,11.55c4.039,2.34,9.209,0.946,11.541-3.101l0,0l25.347-43.935
		C111.575,251.545,110.189,246.374,106.142,244.042L106.142,244.042z"/>
	<path style="fill:#231F20;" d="M143.783,250.083c-4.664,0-8.449,3.785-8.449,8.449v50.694c0,4.664,3.785,8.449,8.449,8.449
		s8.449-3.785,8.449-8.449v-50.694C152.232,253.868,148.446,250.083,143.783,250.083z"/>
	<path style="fill:#231F20;" d="M81.412,219.295c-2.332-4.039-7.494-5.433-11.541-3.101c0,0-0.008,0-0.008,0.008L25.928,241.55
		c-4.047,2.332-5.433,7.503-3.092,11.541c2.332,4.047,7.503,5.433,11.55,3.101l43.935-25.347c4.047-2.332,5.433-7.494,3.109-11.541
		C81.412,219.304,81.412,219.304,81.412,219.295z"/>
	<path style="fill:#231F20;" d="M431.048,216.287c14,0,25.347-11.347,25.347-25.347c0-14-11.347-25.347-25.347-25.347
		c-14,0-25.347,11.347-25.347,25.347C405.701,204.94,417.048,216.287,431.048,216.287z M431.048,182.491
		c4.664,0,8.449,3.785,8.449,8.449c0,4.664-3.785,8.449-8.449,8.449s-8.449-3.785-8.449-8.449
		C422.599,186.277,426.384,182.491,431.048,182.491z"/>
</g>
<g>
</g>
<g>
</g>
<g>
</g>
<g>
</g>
<g>
</g>
<g>
</g>
<g>
</g>
<g>
</g>
<g>
</g>
<g>
</g>
<g>
</g>
<g>
</g>
<g>
</g>
<g>
</g>
<g>
</g>
</svg>
