<?xml version="1.0" encoding="iso-8859-1"?>
<!-- Generator: Adobe Illustrator 19.0.0, SVG Export Plug-In . SVG Version: 6.00 Build 0)  -->
<svg version="1.1" id="Capa_1" xmlns="http://www.w3.org/2000/svg" xmlns:xlink="http://www.w3.org/1999/xlink" x="0px" y="0px"
	 viewBox="0 0 511.996 511.996" style="enable-background:new 0 0 511.996 511.996;" xml:space="preserve">
<path style="fill:#ACABB1;" d="M290.133,8.535h-68.266v34.133h68.266V8.535z"/>
<g>
	<polygon style="fill:#FFAF46;" points="409.597,221.865 383.998,341.33 443.73,341.33 503.462,341.33 477.863,221.865 	"/>
	<polygon style="fill:#FFAF46;" points="102.403,221.865 34.137,221.865 8.537,341.33 68.27,341.33 128.002,341.33 	"/>
	<polygon style="fill:#FFAF46;" points="290.133,221.865 256,221.865 221.867,221.865 196.268,341.33 256,341.33 315.732,341.33 	
		"/>
</g>
<path style="fill:#231F20;" d="M486.208,220.073c-0.845-3.934-4.326-6.741-8.345-6.741h-68.266c-4.019,0-7.501,2.807-8.345,6.741
	l-25.6,119.465c-0.99,4.608,1.946,9.148,6.553,10.137c0.58,0.128,1.186,0.188,1.792,0.188h51.199v34.133
	c-0.051,42.393-34.406,76.748-76.799,76.799h-17.066c-42.393-0.051-76.747-34.406-76.799-76.799H281.6
	c4.71,0,8.533-3.823,8.533-8.533s-3.823-8.533-8.533-8.533h-17.066v-17.066h51.199c4.71,0,8.533-3.814,8.533-8.533
	c0-0.606-0.06-1.203-0.188-1.792l-25.6-119.465c-0.845-3.934-4.326-6.741-8.345-6.741h-25.6V51.201h25.6
	c4.71,0,8.533-3.823,8.533-8.533v-25.6h25.6c4.71,0,8.533-3.823,8.533-8.533s-3.823-8.533-8.533-8.533H187.734
	c-4.71,0-8.533,3.823-8.533,8.533s3.823,8.533,8.533,8.533h25.6v25.6c0,4.71,3.823,8.533,8.533,8.533h25.6v162.131h-25.6
	c-4.019,0-7.501,2.807-8.345,6.741l-25.6,119.465c-0.99,4.608,1.946,9.148,6.553,10.137c0.58,0.128,1.186,0.188,1.792,0.188h51.199
	v17.066H230.4c-4.71,0-8.533,3.823-8.533,8.533s3.823,8.533,8.533,8.533h17.066c-0.051,42.393-34.406,76.748-76.799,76.799h-17.066
	c-42.393-0.051-76.748-34.406-76.799-76.799v-34.133h51.199c4.71,0,8.533-3.814,8.533-8.533c0-0.606-0.06-1.203-0.188-1.792
	l-25.6-119.465c-0.853-3.934-4.326-6.741-8.345-6.741H34.137c-4.019,0-7.501,2.807-8.345,6.741l-25.6,119.465
	c-0.99,4.608,1.946,9.148,6.553,10.137c0.58,0.128,1.186,0.188,1.792,0.188h51.199v34.133c0.06,51.814,42.052,93.805,93.865,93.865
	h17.066c30.6-0.026,59.272-14.976,76.799-40.063v65.663c0,4.71,3.823,8.533,8.533,8.533c4.71,0,8.533-3.823,8.533-8.533v-65.663
	c17.527,25.088,46.199,40.038,76.799,40.063h17.066c51.814-0.06,93.805-42.052,93.865-93.865v-34.133h51.199
	c4.71,0,8.533-3.814,8.533-8.533c0-0.606-0.06-1.203-0.188-1.792L486.208,220.073z M230.4,17.069H281.6v17.066H230.4V17.069z
	 M228.771,230.398h54.459l21.947,102.398h-98.354L228.771,230.398z M41.04,230.398h54.459l21.947,102.398H19.093L41.04,230.398z
	 M394.553,332.797l21.947-102.398h54.459l21.947,102.398H394.553z"/>
<g>
</g>
<g>
</g>
<g>
</g>
<g>
</g>
<g>
</g>
<g>
</g>
<g>
</g>
<g>
</g>
<g>
</g>
<g>
</g>
<g>
</g>
<g>
</g>
<g>
</g>
<g>
</g>
<g>
</g>
</svg>
