<?xml version="1.0" encoding="iso-8859-1"?>
<!-- Generator: Adobe Illustrator 19.0.0, SVG Export Plug-In . SVG Version: 6.00 Build 0)  -->
<svg version="1.1" id="Capa_1" xmlns="http://www.w3.org/2000/svg" xmlns:xlink="http://www.w3.org/1999/xlink" x="0px" y="0px"
	 viewBox="0 0 512.005 512.005" style="enable-background:new 0 0 512.005 512.005;" xml:space="preserve">
<g>
	<polygon style="fill:#FFAF46;" points="426.666,255.996 384,255.996 384,409.593 426.666,409.593 469.332,409.593 469.332,255.996 
			"/>
	<polygon style="fill:#FFAF46;" points="128.005,255.996 85.339,255.996 42.673,255.996 42.673,409.593 85.339,409.593 
		128.005,409.593 	"/>
</g>
<g>
	<path style="fill:#FF5023;" d="M128.005,179.197c0-23.56-42.666-93.865-42.666-93.865s-42.666,70.305-42.666,93.865
		s19.106,42.666,42.666,42.666S128.005,202.757,128.005,179.197z"/>
	<path style="fill:#FF5023;" d="M469.332,179.197c0-23.56-42.666-93.865-42.666-93.865S384,155.637,384,179.197
		s19.106,42.666,42.666,42.666S469.332,202.757,469.332,179.197z"/>
</g>
<path style="fill:#231F20;" d="M494.932,401.06h-17.066V255.996c0-4.71-3.823-8.533-8.533-8.533H435.2v-17.834
	c24.601-4.181,42.623-25.472,42.666-50.431c0-25.224-39.406-90.887-43.912-98.294c-2.782-4.028-8.294-5.035-12.322-2.253
	c-0.879,0.606-1.647,1.374-2.253,2.253c-4.506,7.407-43.912,73.07-43.912,98.294c0.043,24.96,18.065,46.25,42.666,50.431v17.834H384
	c-4.71,0-8.533,3.823-8.533,8.533V401.06h-17.066c-4.71,0-8.533,3.823-8.533,8.533c0,4.71,3.823,8.533,8.533,8.533h59.732
	c0,42.418-34.38,76.799-76.799,76.799s-76.799-34.38-76.799-76.799V17.066h68.266c4.71,0,8.533-3.823,8.533-8.533
	S337.512,0,332.801,0H179.204c-4.71,0-8.533,3.823-8.533,8.533s3.823,8.533,8.533,8.533h68.266v401.06
	c0,42.418-34.38,76.799-76.799,76.799s-76.799-34.38-76.799-76.799h59.732c4.71,0,8.533-3.823,8.533-8.533
	c0-4.71-3.823-8.533-8.533-8.533h-17.066V255.996c0-4.71-3.823-8.533-8.533-8.533H93.872v-17.834
	c24.601-4.181,42.623-25.472,42.666-50.431c0-25.224-39.406-90.887-43.912-98.294c-2.782-4.028-8.294-5.035-12.322-2.253
	c-0.887,0.606-1.647,1.374-2.253,2.253c-4.506,7.407-43.912,73.07-43.912,98.294c0.043,24.96,18.065,46.25,42.666,50.431v17.834
	H42.673c-4.71,0-8.533,3.823-8.533,8.533V401.06H17.073c-4.71,0-8.533,3.823-8.533,8.533c0,4.71,3.823,8.533,8.533,8.533h59.732
	c-0.026,51.805,41.949,93.831,93.754,93.857c36.795,0.017,70.211-21.478,85.443-54.979c21.444,47.163,77.063,68.01,124.218,46.566
	c33.501-15.232,54.996-48.639,54.979-85.443h59.732c4.71,0,8.533-3.823,8.533-8.533C503.465,404.883,499.642,401.06,494.932,401.06z
	 M51.206,179.197c0-13.226,18.705-50.167,34.133-77.055c15.437,26.888,34.133,63.82,34.133,77.055
	c0,18.85-15.283,34.133-34.133,34.133S51.206,198.047,51.206,179.197z M51.206,401.06V264.529h68.266V401.06H51.206z
	 M392.534,179.197c0-13.226,18.705-50.167,34.133-77.055c15.437,26.888,34.133,63.82,34.133,77.055
	c0,18.85-15.283,34.133-34.133,34.133C407.817,213.33,392.534,198.047,392.534,179.197z M460.799,401.06h-68.266V264.529h68.266
	V401.06z"/>
<g>
</g>
<g>
</g>
<g>
</g>
<g>
</g>
<g>
</g>
<g>
</g>
<g>
</g>
<g>
</g>
<g>
</g>
<g>
</g>
<g>
</g>
<g>
</g>
<g>
</g>
<g>
</g>
<g>
</g>
</svg>
