<?xml version="1.0" encoding="iso-8859-1"?>
<!-- Generator: Adobe Illustrator 19.0.0, SVG Export Plug-In . SVG Version: 6.00 Build 0)  -->
<svg version="1.1" id="Capa_1" xmlns="http://www.w3.org/2000/svg" xmlns:xlink="http://www.w3.org/1999/xlink" x="0px" y="0px"
	 viewBox="0 0 512 512" style="enable-background:new 0 0 512 512;" xml:space="preserve">
<path style="fill:#78B9EB;" d="M435.2,59.733c0-28.279-22.921-51.2-51.2-51.2c-28.262,0.043-51.157,22.938-51.2,51.2V128h102.4
	V59.733z"/>
<path style="fill:#0A87EB;" d="M242.859,59.733c6.144,10.547,6.144,23.586,0,34.133H332.8V59.733H242.859z"/>
<g>
	<path style="fill:#78B9EB;" d="M242.859,59.733c-9.429-16.188-30.191-21.666-46.37-12.237s-21.666,30.191-12.237,46.37
		c9.429,16.179,30.191,21.666,46.37,12.237c10.428-6.076,16.845-17.237,16.845-29.303C247.467,70.801,245.871,64.913,242.859,59.733
		z"/>
	<path style="fill:#78B9EB;" d="M68.523,197.461c-2.867-0.794-5.82-1.195-8.789-1.195c-18.85-0.017-34.15,15.249-34.167,34.099
		c-0.009,14.967,9.719,28.194,24.013,32.631c17.997,5.606,37.137-4.437,42.743-22.434c1.024-3.294,1.545-6.716,1.545-10.163
		c0-2.97-0.401-5.922-1.195-8.789C89.566,209.801,80.333,200.567,68.523,197.461z"/>
</g>
<g>
	<path style="fill:#0A87EB;" d="M180.395,85.675L68.523,197.461c11.81,3.106,21.043,12.339,24.149,24.149l111.787-111.872
		C192.734,106.547,183.586,97.399,180.395,85.675z"/>
	<path style="fill:#0A87EB;" d="M49.579,262.997l55.211,206.336h35.328L82.859,255.488
		C73.899,263.757,61.218,266.615,49.579,262.997z"/>
	<polygon style="fill:#0A87EB;" points="25.6,469.333 25.6,503.467 332.8,503.467 332.8,469.333 140.117,469.333 104.789,469.333 	
		"/>
</g>
<path style="fill:#78B9EB;" d="M435.2,128H332.8c-31.479,16.845-51.149,49.63-51.2,85.333h204.8
	C486.349,177.63,466.68,144.845,435.2,128z"/>
<path style="fill:#C9E3F7;" d="M384,238.933c16.973-0.043,32.324-10.069,39.168-25.6h-78.336
	C351.676,228.864,367.027,238.891,384,238.933z"/>
<path d="M443.733,123.426V59.733C443.699,26.761,416.973,0.034,384,0c-29.67,0.034-54.818,21.837-59.059,51.2h-77.542
	c-14.003-18.876-40.661-22.827-59.537-8.823c-12.629,9.37-19.063,24.934-16.725,40.491L65.707,188.194
	c-1.98-0.299-3.977-0.452-5.973-0.461c-23.526-0.034-42.633,19.004-42.667,42.53c-0.026,16.887,9.924,32.188,25.361,39.023
	L93.67,460.8H25.6c-4.71,0-8.533,3.823-8.533,8.533v34.133c0,4.71,3.823,8.533,8.533,8.533h307.2c4.71,0,8.533-3.823,8.533-8.533
	v-34.133c0-4.71-3.823-8.533-8.533-8.533H146.662L92.271,257.707c6.494-7.62,10.078-17.297,10.129-27.307
	c-0.009-1.997-0.162-3.994-0.461-5.973l105.335-105.429c15.42,2.321,30.857-4.062,40.124-16.597h76.868v21.026
	c-31.667,18.901-51.098,53.026-51.2,89.907c0,4.71,3.823,8.533,8.533,8.533h58.138c14.063,24.448,45.278,32.862,69.726,18.799
	c7.817-4.497,14.302-10.982,18.799-18.799H486.4c4.71,0,8.533-3.823,8.533-8.533C494.831,176.452,475.401,142.327,443.733,123.426z
	 M353.886,29.559c7.953-8.047,18.807-12.544,30.114-12.493c23.552,0.026,42.641,19.115,42.667,42.667v59.733h-85.333V59.733
	C341.282,48.393,345.805,37.513,353.886,29.559z M59.733,204.8c2.244,0,4.48,0.307,6.639,0.913
	c8.875,2.321,15.804,9.259,18.108,18.142c0.58,2.133,0.862,4.335,0.853,6.545c0.009,7.159-2.995,14.003-8.277,18.842
	c-5.367,4.779-12.467,7.134-19.627,6.511c-1.801-0.102-3.593-0.401-5.325-0.896c-13.508-4.181-21.069-18.517-16.887-32.026
	C38.537,212.087,48.486,204.774,59.733,204.8z M324.267,494.933H34.133v-17.067h290.133V494.933z M111.334,460.8L61.099,273.067
	c0.853,0,1.707-0.265,2.56-0.341c1.69-0.128,3.371-0.35,5.035-0.666c1.101-0.239,2.15-0.606,3.226-0.93
	c1.57-0.444,3.106-0.973,4.617-1.596c0.358-0.154,0.751-0.222,1.109-0.384l51.354,191.65H111.334z M95.326,206.874
	c-0.171-0.265-0.418-0.478-0.597-0.742c-2.918-4.215-6.571-7.859-10.786-10.769c-0.239-0.171-0.435-0.401-0.691-0.563l94.541-94.455
	c0.179,0.265,0.427,0.478,0.614,0.742c1.417,2.091,3.021,4.045,4.787,5.845l0,0c1.809,1.766,3.763,3.371,5.854,4.796
	c0.265,0.179,0.469,0.427,0.734,0.597L95.326,206.874z M206.686,101.547c-8.823-2.398-15.71-9.301-18.099-18.125
	c-0.58-2.159-0.862-4.386-0.853-6.622c0.017-14.14,11.486-25.591,25.626-25.574c14.14,0.017,25.591,11.486,25.574,25.626
	s-11.486,25.591-25.626,25.574C211.072,102.426,208.845,102.127,206.686,101.547z M255.147,85.333
	c0.068-0.316,0.043-0.64,0.102-0.956c1.033-5.001,1.033-10.155,0-15.155c-0.06-0.316,0-0.64-0.102-0.956h69.12v17.067H255.147z
	 M384,230.4c-8.311-0.009-16.324-3.046-22.562-8.533h45.124C400.324,227.354,392.311,230.391,384,230.4z M290.517,204.8
	c2.79-28.689,19.456-54.195,44.612-68.267h97.741c25.156,14.071,41.822,39.578,44.612,68.267H290.517z"/>
<path d="M384,273.067c-4.71,0-8.533,3.823-8.533,8.533v51.2c0,4.71,3.823,8.533,8.533,8.533c4.71,0,8.533-3.823,8.533-8.533v-51.2
	C392.533,276.89,388.71,273.067,384,273.067z"/>
<path d="M432.273,258.074c-3.388-3.277-8.789-3.183-12.066,0.205c-3.191,3.311-3.191,8.55,0,11.861l41.199,41.199
	c3.388,3.277,8.789,3.183,12.066-0.205c3.191-3.311,3.191-8.55,0-11.861L432.273,258.074z"/>
<path d="M335.727,258.074l-41.199,41.199c-3.388,3.277-3.482,8.678-0.205,12.066c3.277,3.388,8.678,3.482,12.066,0.205
	c0.068-0.068,0.137-0.137,0.205-0.205l41.199-41.199c3.277-3.388,3.183-8.789-0.205-12.066
	C344.277,254.882,339.038,254.882,335.727,258.074z"/>
<g>
</g>
<g>
</g>
<g>
</g>
<g>
</g>
<g>
</g>
<g>
</g>
<g>
</g>
<g>
</g>
<g>
</g>
<g>
</g>
<g>
</g>
<g>
</g>
<g>
</g>
<g>
</g>
<g>
</g>
</svg>
