<?xml version="1.0" encoding="iso-8859-1"?>
<!-- Generator: Adobe Illustrator 19.0.0, SVG Export Plug-In . SVG Version: 6.00 Build 0)  -->
<svg version="1.1" id="Capa_1" xmlns="http://www.w3.org/2000/svg" xmlns:xlink="http://www.w3.org/1999/xlink" x="0px" y="0px"
	 viewBox="0 0 512 512" style="enable-background:new 0 0 512 512;" xml:space="preserve">
<path style="fill:#78B9EB;" d="M392.516,298.667l-12.279-34.799c-25.762-72.969-38.921-149.794-38.921-227.174V8.533H298.65v34.133
	c0.606,75.452,13.141,150.332,37.154,221.867c-24.013-71.535-36.548-146.415-37.154-221.867V8.533h-42.667l0,0h-42.667v34.133
	c-0.606,75.452-13.141,150.332-37.154,221.867c24.013-71.535,36.548-146.415,37.154-221.867V8.533H170.65v28.16
	c0,77.389-13.158,154.223-38.921,227.2l-12.279,34.773H392.516z"/>
<rect x="238.916" y="298.667" style="fill:#E6E7E8;" width="34.133" height="119.467"/>
<g>
	<path style="fill:#939598;" d="M170.65,452.267c-9.429,0-17.067,7.637-17.067,17.067v34.133h204.8v-34.133
		c0-9.429-7.637-17.067-17.067-17.067H170.65z"/>
	<path style="fill:#939598;" d="M230.383,418.133c-9.429,0-17.067,7.637-17.067,17.067v17.067h85.333V435.2
		c0-9.429-7.637-17.067-17.067-17.067H230.383z"/>
</g>
<path style="fill:#231F20;" d="M400.563,295.825l-12.314-34.79c-25.446-72.055-38.434-147.925-38.4-224.341V8.533
	c0-4.71-3.823-8.533-8.533-8.533H170.65c-4.71,0-8.533,3.823-8.533,8.533v28.16c0.043,76.425-12.945,152.303-38.4,224.367
	l-12.288,34.799c-1.553,4.454,0.802,9.318,5.248,10.863c0.896,0.316,1.826,0.478,2.773,0.478h110.933v102.4
	c-14.14,0-25.6,11.46-25.6,25.6v8.533H170.65c-14.14,0-25.6,11.46-25.6,25.6v34.133c0,4.71,3.823,8.533,8.533,8.533h204.8
	c4.71,0,8.533-3.823,8.533-8.533v-34.133c0-14.14-11.46-25.6-25.6-25.6h-34.133V435.2c0-14.14-11.46-25.6-25.6-25.6V307.2h110.933
	c4.71,0,8.533-3.823,8.533-8.533C401.05,297.702,400.888,296.738,400.563,295.825z M349.85,469.333v25.6H162.116v-25.6
	c0-4.71,3.823-8.533,8.533-8.533h170.667C346.027,460.8,349.85,464.623,349.85,469.333z M290.116,435.2v8.533H221.85V435.2
	c0-4.71,3.823-8.533,8.533-8.533h51.2C286.294,426.667,290.116,430.49,290.116,435.2z M264.516,409.6H247.45V307.2h17.067V409.6z
	 M131.516,290.133l8.26-23.424c26.112-73.873,39.433-151.663,39.407-230.016V17.067h25.6v25.532
	c-0.589,74.556-12.971,148.54-36.693,219.221c-1.502,4.48,0.913,9.318,5.393,10.82c4.48,1.502,9.318-0.913,10.82-5.393l0,0
	c24.277-72.414,36.949-148.207,37.547-224.58v-25.6h25.6v247.467c0,4.71,3.823,8.533,8.533,8.533c4.71,0,8.533-3.823,8.533-8.533
	V17.067h25.6v25.668c0.614,76.348,13.303,152.124,37.598,224.512c1.502,4.48,6.34,6.895,10.82,5.393
	c4.48-1.502,6.895-6.34,5.393-10.82l0,0c-23.731-70.656-36.13-144.623-36.745-219.153v-25.6h25.6v19.627
	c-0.034,78.362,13.295,156.16,39.407,230.05l8.26,23.39H131.516z"/>
<g>
</g>
<g>
</g>
<g>
</g>
<g>
</g>
<g>
</g>
<g>
</g>
<g>
</g>
<g>
</g>
<g>
</g>
<g>
</g>
<g>
</g>
<g>
</g>
<g>
</g>
<g>
</g>
<g>
</g>
</svg>
