<?xml version="1.0" encoding="iso-8859-1"?>
<!-- Generator: Adobe Illustrator 19.0.0, SVG Export Plug-In . SVG Version: 6.00 Build 0)  -->
<svg version="1.1" id="Capa_1" xmlns="http://www.w3.org/2000/svg" xmlns:xlink="http://www.w3.org/1999/xlink" x="0px" y="0px"
	 viewBox="0 0 511.997 511.997" style="enable-background:new 0 0 511.997 511.997;" xml:space="preserve">
<g>
	<polygon style="fill:#FFAF46;" points="290.133,145.051 255.998,145.051 221.864,145.051 221.864,315.723 255.998,315.723 
		290.133,315.723 	"/>
	<polygon style="fill:#FFAF46;" points="452.272,145.051 418.137,145.051 384.003,145.051 384.003,315.723 418.137,315.723 
		452.272,315.723 	"/>
	<polygon style="fill:#FFAF46;" points="127.994,315.723 127.994,145.051 93.86,145.051 59.725,145.051 59.725,315.723 
		93.86,315.723 	"/>
</g>
<g>
	<path style="fill:#FF5023;" d="M136.528,93.849c0,18.851-15.284,34.134-34.134,34.134S68.259,112.7,68.259,93.849
		c0.461-14.226,5.863-27.845,15.284-38.504c13.312-14.413,28.229-27.256,44.452-38.299c-3.541,12.229-4.728,25.029-3.473,37.702
		C126.356,69.844,136.528,85.597,136.528,93.849z"/>
	<path style="fill:#FF5023;" d="M298.666,93.849c0,18.851-15.284,34.134-34.134,34.134c-18.851,0-34.134-15.284-34.134-34.134
		c0.461-14.226,5.863-27.837,15.284-38.504c13.312-14.413,28.229-27.256,44.452-38.299c-3.541,12.229-4.728,25.029-3.473,37.702
		C288.494,69.844,298.666,85.597,298.666,93.849z"/>
	<path style="fill:#FF5023;" d="M460.805,93.849c0,18.851-15.284,34.134-34.134,34.134c-18.851,0-34.134-15.284-34.134-34.134
		c0.461-14.226,5.863-27.837,15.284-38.504c13.312-14.413,28.229-27.256,44.452-38.299c-3.541,12.229-4.728,25.029-3.473,37.702
		C450.633,69.844,460.805,85.597,460.805,93.849z"/>
</g>
<g>
	<path style="fill:#231F20;" d="M124.427,127.984c-4.711,0-8.534-3.832-8.525-8.542c0-2.33,0.956-4.565,2.645-6.17
		c6.818-7.646,10.232-17.741,9.447-27.956c-0.503-4.335-1.656-8.568-3.413-12.561c-2.97-6.835-4.702-14.14-5.12-21.573
		c0.034-6.767,0.683-13.517,1.92-20.173C98.98,49.688,76.792,72.729,76.792,85.316c-0.469,8.952,1.988,17.801,6.998,25.234
		c2.867,3.746,2.159,9.097-1.587,11.964c-3.746,2.867-9.097,2.159-11.964-1.587c-7.313-10.402-11-22.913-10.513-35.611
		c0-31.105,59.863-75.224,71.862-83.757c3.849-2.714,9.174-1.792,11.887,2.057c1.681,2.389,2.031,5.479,0.913,8.184
		c-4.847,12.587-7.501,25.9-7.859,39.383c0.486,5.41,1.852,10.71,4.045,15.676c2.552,5.846,4.071,12.092,4.489,18.458
		c0.99,14.925-4.369,29.569-14.755,40.33C128.719,127.148,126.612,127.984,124.427,127.984z"/>
	<path style="fill:#231F20;" d="M286.566,127.984c-4.711,0-8.534-3.832-8.525-8.542c0-2.33,0.956-4.565,2.645-6.17
		c6.818-7.646,10.232-17.741,9.447-27.956c-0.503-4.335-1.656-8.568-3.413-12.561c-2.97-6.835-4.702-14.14-5.12-21.573
		c0.034-6.767,0.683-13.517,1.92-20.173c-22.401,18.68-44.588,41.721-44.588,54.308c-0.469,8.952,1.988,17.801,6.998,25.234
		c2.867,3.746,2.159,9.097-1.587,11.964c-3.746,2.867-9.097,2.159-11.964-1.587c-7.313-10.402-11-22.913-10.513-35.611
		c0-31.105,59.863-75.224,71.862-83.757c3.849-2.714,9.174-1.792,11.887,2.057c1.681,2.389,2.031,5.479,0.913,8.184
		c-4.847,12.587-7.501,25.9-7.859,39.383c0.486,5.41,1.852,10.71,4.045,15.676c2.552,5.846,4.071,12.092,4.489,18.458
		c0.99,14.925-4.369,29.569-14.755,40.33C290.858,127.148,288.75,127.984,286.566,127.984z"/>
	<path style="fill:#231F20;" d="M448.704,127.984c-4.711,0-8.534-3.832-8.525-8.542c0-2.33,0.956-4.565,2.645-6.17
		c6.818-7.646,10.232-17.741,9.447-27.956c-0.503-4.335-1.656-8.568-3.413-12.561c-2.97-6.835-4.702-14.14-5.12-21.573
		c0.034-6.767,0.683-13.517,1.92-20.173c-22.401,18.68-44.588,41.721-44.588,54.308c-0.469,8.952,1.988,17.801,6.998,25.234
		c2.867,3.746,2.159,9.097-1.587,11.964s-9.097,2.159-11.964-1.587c-7.313-10.402-11-22.913-10.513-35.611
		c0-31.105,59.863-75.224,71.862-83.757c3.849-2.714,9.174-1.792,11.887,2.057c1.681,2.389,2.031,5.479,0.913,8.184
		c-4.847,12.587-7.501,25.9-7.859,39.383c0.486,5.41,1.852,10.71,4.045,15.676c2.552,5.846,4.071,12.092,4.489,18.458
		c0.99,14.925-4.369,29.569-14.755,40.33C452.997,127.148,450.889,127.984,448.704,127.984z"/>
	<path style="fill:#231F20;" d="M469.339,307.19h-8.534V145.051c0-4.711-3.823-8.534-8.534-8.534h-22.46
		c3.533-11.751,3.379-24.295-0.444-35.952l-3.132-9.387c-1.493-4.48-6.323-6.904-10.804-5.41c-4.48,1.493-6.904,6.323-5.41,10.804
		l3.14,9.387c2.901,8.764,2.901,18.228,0,26.992l-1.178,3.567h-27.982c-4.711,0-8.534,3.823-8.534,8.534V307.19h-8.534
		c-4.711,0-8.534,3.823-8.534,8.534s3.823,8.534,8.534,8.534h42.668v25.601c0,14.14-11.461,25.601-25.601,25.601H264.532v-51.202
		H307.2c4.711,0,8.534-3.823,8.534-8.534s-3.823-8.534-8.534-8.534h-8.534V145.051c0-4.711-3.823-8.534-8.534-8.534h-22.46
		c3.533-11.751,3.379-24.295-0.444-35.952l-3.132-9.387c-1.493-4.48-6.323-6.904-10.804-5.41c-4.48,1.493-6.904,6.323-5.41,10.804
		l3.14,9.387c2.901,8.764,2.901,18.228,0,26.992l-1.178,3.567h-27.982c-4.711,0-8.534,3.823-8.534,8.534V307.19h-8.534
		c-4.711,0-8.534,3.823-8.534,8.534s3.823,8.534,8.534,8.534h42.668v51.202H127.994c-14.14,0-25.601-11.461-25.601-25.601v-25.601
		h42.668c4.711,0,8.534-3.823,8.534-8.534s-3.823-8.534-8.534-8.534h-8.534V145.051c0-4.711-3.823-8.534-8.534-8.534h-22.46
		c3.533-11.751,3.379-24.295-0.444-35.952l-3.132-9.387c-1.493-4.48-6.323-6.904-10.804-5.41s-6.904,6.323-5.41,10.804l3.14,9.387
		c2.901,8.764,2.901,18.228,0,26.992l-1.178,3.567H59.725c-4.711,0-8.534,3.823-8.534,8.534V307.19h-8.534
		c-4.711,0-8.534,3.823-8.534,8.534s3.823,8.534,8.534,8.534h42.668v25.601c0.026,23.553,19.115,42.643,42.668,42.668h119.471
		v102.403H127.994c-4.711,0-8.534,3.823-8.534,8.534s3.823,8.534,8.534,8.534h256.009c4.711,0,8.534-3.823,8.534-8.534
		s-3.823-8.534-8.534-8.534H264.532V392.526h119.471c23.553-0.026,42.642-19.115,42.668-42.668v-25.601h42.668
		c4.711,0,8.534-3.823,8.534-8.534S474.049,307.19,469.339,307.19z M230.397,153.585h51.202V307.19h-51.202V153.585z
		 M68.259,153.585h51.202V307.19H68.259C68.259,307.19,68.259,153.585,68.259,153.585z M392.536,307.19V153.585h51.202V307.19
		H392.536z"/>
</g>
<g>
</g>
<g>
</g>
<g>
</g>
<g>
</g>
<g>
</g>
<g>
</g>
<g>
</g>
<g>
</g>
<g>
</g>
<g>
</g>
<g>
</g>
<g>
</g>
<g>
</g>
<g>
</g>
<g>
</g>
</svg>
