<?xml version="1.0" encoding="iso-8859-1"?>
<!-- Generator: Adobe Illustrator 19.0.0, SVG Export Plug-In . SVG Version: 6.00 Build 0)  -->
<svg version="1.1" id="Capa_1" xmlns="http://www.w3.org/2000/svg" xmlns:xlink="http://www.w3.org/1999/xlink" x="0px" y="0px"
	 viewBox="0 0 512 512" style="enable-background:new 0 0 512 512;" xml:space="preserve">
<g>
	<polygon style="fill:#ACABB1;" points="95.531,477.867 95.531,503.467 197.931,503.467 197.931,477.867 172.331,477.867 
		121.131,477.867 	"/>
	<path style="fill:#ACABB1;" d="M385.664,68.267c0-9.429-7.637-17.067-17.067-17.067h-51.2c-9.429,0-17.067,7.637-17.067,17.067
		v170.667c0,9.429,7.637,17.067,17.067,17.067h51.2c9.429,0,17.067-7.637,17.067-17.067V68.267z M342.997,230.4
		c-9.429,0-17.067-7.637-17.067-17.067s7.637-17.067,17.067-17.067c9.429,0,17.067,7.637,17.067,17.067S352.427,230.4,342.997,230.4
		z M342.997,170.667c-9.429,0-17.067-7.637-17.067-17.067c0-9.429,7.637-17.067,17.067-17.067c9.429,0,17.067,7.637,17.067,17.067
		C360.064,163.029,352.427,170.667,342.997,170.667z M342.997,110.933c-9.429,0-17.067-7.637-17.067-17.067
		S333.568,76.8,342.997,76.8c9.429,0,17.067,7.637,17.067,17.067S352.427,110.933,342.997,110.933z"/>
</g>
<circle style="fill:#ED1C24;" cx="343.04" cy="93.867" r="17.067"/>
<circle style="fill:#FFAF46;" cx="343.04" cy="153.6" r="17.067"/>
<circle style="fill:#006838;" cx="343.04" cy="213.333" r="17.067"/>
<path style="fill:#ACABB1;" d="M121.131,426.667v51.2h51.2v-51.2c0-9.429-7.637-17.067-17.067-17.067h-17.067
	C128.768,409.6,121.131,417.237,121.131,426.667z"/>
<g>
	<path style="fill:#231F20;" d="M342.997,68.267c-14.14,0-25.6,11.46-25.6,25.6s11.46,25.6,25.6,25.6c14.14,0,25.6-11.46,25.6-25.6
		S357.137,68.267,342.997,68.267z M342.997,102.4c-4.71,0-8.533-3.823-8.533-8.533c0-4.71,3.823-8.533,8.533-8.533
		s8.533,3.823,8.533,8.533C351.531,98.577,347.708,102.4,342.997,102.4z"/>
	<path style="fill:#231F20;" d="M342.997,128c-14.14,0-25.6,11.46-25.6,25.6c0,14.14,11.46,25.6,25.6,25.6
		c14.14,0,25.6-11.46,25.6-25.6C368.597,139.46,357.137,128,342.997,128z M342.997,162.133c-4.71,0-8.533-3.823-8.533-8.533
		s3.823-8.533,8.533-8.533s8.533,3.823,8.533,8.533S347.708,162.133,342.997,162.133z"/>
	<path style="fill:#231F20;" d="M342.997,187.733c-14.14,0-25.6,11.46-25.6,25.6s11.46,25.6,25.6,25.6c14.14,0,25.6-11.46,25.6-25.6
		S357.137,187.733,342.997,187.733z M342.997,221.867c-4.71,0-8.533-3.823-8.533-8.533s3.823-8.533,8.533-8.533
		s8.533,3.823,8.533,8.533S347.708,221.867,342.997,221.867z"/>
	<path style="fill:#231F20;" d="M398.729,152.201c4.762-4.591,11.127-7.142,17.741-7.134c4.71,0,8.533-3.823,8.533-8.533
		S421.18,128,416.469,128c-7.868,0.009-15.582,2.21-22.272,6.357V96.811l4.531-4.361c4.77-4.582,11.127-7.134,17.741-7.117
		c4.71,0,8.533-3.823,8.533-8.533s-3.823-8.533-8.533-8.533c-7.868,0.009-15.582,2.21-22.272,6.357v-6.357
		c0-14.14-11.46-25.6-25.6-25.6h-17.067v-25.6h34.133c4.71,0,8.533-3.823,8.533-8.533S390.374,0,385.664,0H214.997
		c-42.394,0.051-76.749,34.406-76.8,76.8v324.267c-14.14,0-25.6,11.46-25.6,25.6v42.667H95.531c-4.71,0-8.533,3.823-8.533,8.533
		v25.6c0,4.71,3.823,8.533,8.533,8.533h102.4c4.71,0,8.533-3.823,8.533-8.533v-25.6c0-4.71-3.823-8.533-8.533-8.533h-17.067v-42.667
		c0-14.14-11.46-25.6-25.6-25.6V76.8c0.043-32.973,26.761-59.691,59.733-59.733h119.467v25.6h-17.067c-14.14,0-25.6,11.46-25.6,25.6
		v6.357c-6.69-4.147-14.404-6.349-22.272-6.357c-4.71,0-8.533,3.823-8.533,8.533s3.823,8.533,8.533,8.533
		c6.613-0.017,12.979,2.551,17.741,7.142l4.531,4.352v37.547c-6.69-4.156-14.404-6.357-22.272-6.374
		c-4.71,0-8.533,3.823-8.533,8.533s3.823,8.533,8.533,8.533c6.613-0.017,12.979,2.551,17.741,7.142l4.531,4.352v37.547
		c-6.69-4.156-14.404-6.357-22.272-6.374c-4.71,0-8.533,3.823-8.533,8.533s3.823,8.533,8.533,8.533
		c6.613-0.017,12.979,2.551,17.741,7.142l4.531,4.352v22.639c0,14.14,11.46,25.6,25.6,25.6h51.2c14.14,0,25.6-11.46,25.6-25.6
		v-22.639l4.531-4.361c4.762-4.591,11.127-7.142,17.741-7.134c4.71,0,8.533-3.823,8.533-8.533s-3.823-8.533-8.533-8.533
		c-7.868,0.009-15.582,2.21-22.272,6.357v-37.547L398.729,152.201z M189.397,494.933h-85.333V486.4h85.333V494.933z
		 M163.797,426.667v42.667h-34.133v-42.667c0-4.71,3.823-8.533,8.533-8.533h17.067C159.974,418.133,163.797,421.956,163.797,426.667
		z M377.131,238.933c0,4.71-3.823,8.533-8.533,8.533h-51.2c-4.71,0-8.533-3.823-8.533-8.533V68.267c0-4.71,3.823-8.533,8.533-8.533
		h51.2c4.71,0,8.533,3.823,8.533,8.533V238.933z"/>
</g>
<g>
</g>
<g>
</g>
<g>
</g>
<g>
</g>
<g>
</g>
<g>
</g>
<g>
</g>
<g>
</g>
<g>
</g>
<g>
</g>
<g>
</g>
<g>
</g>
<g>
</g>
<g>
</g>
<g>
</g>
</svg>
