<?xml version="1.0" encoding="iso-8859-1"?>
<!-- Generator: Adobe Illustrator 19.0.0, SVG Export Plug-In . SVG Version: 6.00 Build 0)  -->
<svg version="1.1" id="Capa_1" xmlns="http://www.w3.org/2000/svg" xmlns:xlink="http://www.w3.org/1999/xlink" x="0px" y="0px"
	 viewBox="0 0 512 512" style="enable-background:new 0 0 512 512;" xml:space="preserve">
<path style="fill:#ACABB1;" d="M307.2,247.467V25.6c0-9.429-7.637-17.067-17.067-17.067h-68.267
	c-9.429,0-17.067,7.637-17.067,17.067v221.867c0,9.429,7.637,17.067,17.067,17.067h68.267
	C299.563,264.533,307.2,256.896,307.2,247.467z M256,238.933c-14.14,0-25.6-11.46-25.6-25.6s11.46-25.6,25.6-25.6
	c14.14,0,25.6,11.46,25.6,25.6S270.14,238.933,256,238.933z M256,162.133c-14.14,0-25.6-11.46-25.6-25.6s11.46-25.6,25.6-25.6
	c14.14,0,25.6,11.46,25.6,25.6S270.14,162.133,256,162.133z M256,85.333c-14.14,0-25.6-11.46-25.6-25.6s11.46-25.6,25.6-25.6
	c14.14,0,25.6,11.46,25.6,25.6S270.14,85.333,256,85.333z"/>
<circle style="fill:#ED1C24;" cx="256" cy="59.733" r="25.6"/>
<circle style="fill:#FFAF46;" cx="256" cy="136.533" r="25.6"/>
<circle style="fill:#006838;" cx="256" cy="213.333" r="25.6"/>
<path d="M256,93.867c-18.85,0-34.133-15.283-34.133-34.133S237.15,25.6,256,25.6c18.85,0,34.133,15.283,34.133,34.133
	S274.85,93.867,256,93.867z M256,42.667c-9.429,0-17.067,7.637-17.067,17.067S246.571,76.8,256,76.8
	c9.429,0,17.067-7.637,17.067-17.067S265.429,42.667,256,42.667z"/>
<path d="M256,170.667c-18.85,0-34.133-15.283-34.133-34.133S237.15,102.4,256,102.4c18.85,0,34.133,15.283,34.133,34.133
	S274.85,170.667,256,170.667z M256,119.467c-9.429,0-17.067,7.637-17.067,17.067S246.571,153.6,256,153.6
	c9.429,0,17.067-7.637,17.067-17.067S265.429,119.467,256,119.467z"/>
<path d="M290.133,213.333c0-18.85-15.283-34.133-34.133-34.133c-18.85,0-34.133,15.283-34.133,34.133S237.15,247.467,256,247.467
	C274.85,247.467,290.133,232.183,290.133,213.333z M238.933,213.333c0-9.429,7.637-17.067,17.067-17.067
	c9.429,0,17.067,7.637,17.067,17.067S265.429,230.4,256,230.4C246.571,230.4,238.933,222.763,238.933,213.333z"/>
<path d="M349.867,494.933h-85.333V273.067h25.6c14.14,0,25.6-11.46,25.6-25.6V25.6c0-14.14-11.46-25.6-25.6-25.6h-68.267
	c-14.14,0-25.6,11.46-25.6,25.6v221.867c0,14.14,11.46,25.6,25.6,25.6h25.6v221.867h-85.333c-4.71,0-8.533,3.823-8.533,8.533
	c0,4.71,3.823,8.533,8.533,8.533h187.733c4.71,0,8.533-3.823,8.533-8.533C358.4,498.756,354.577,494.933,349.867,494.933z
	 M213.333,247.467V25.6c0-4.71,3.823-8.533,8.533-8.533h68.267c4.71,0,8.533,3.823,8.533,8.533v221.867
	c0,4.71-3.823,8.533-8.533,8.533h-68.267C217.156,256,213.333,252.177,213.333,247.467z"/>
<g>
</g>
<g>
</g>
<g>
</g>
<g>
</g>
<g>
</g>
<g>
</g>
<g>
</g>
<g>
</g>
<g>
</g>
<g>
</g>
<g>
</g>
<g>
</g>
<g>
</g>
<g>
</g>
<g>
</g>
</svg>
