<?xml version="1.0" encoding="iso-8859-1"?>
<!-- Generator: Adobe Illustrator 19.0.0, SVG Export Plug-In . SVG Version: 6.00 Build 0)  -->
<svg version="1.1" id="Capa_1" xmlns="http://www.w3.org/2000/svg" xmlns:xlink="http://www.w3.org/1999/xlink" x="0px" y="0px"
	 viewBox="0 0 512 512" style="enable-background:new 0 0 512 512;" xml:space="preserve">
<path style="fill:#FFDA44;" d="M384,384V128H128v256H384z M256,153.6c56.55,0,102.4,45.85,102.4,102.4S312.55,358.4,256,358.4
	S153.6,312.55,153.6,256S199.45,153.6,256,153.6z"/>
<g>
	<path style="fill:#E6E7E8;" d="M425.003,32.324c3.712-8.661-0.299-18.697-8.96-22.409c-2.125-0.913-4.412-1.382-6.724-1.382
		H102.682c-9.429,0.026-17.05,7.689-17.024,17.109c0.009,2.295,0.478,4.565,1.382,6.682L128,128h256L425.003,32.324z"/>
	<path style="fill:#E6E7E8;" d="M87.04,479.676c-3.712,8.661,0.299,18.697,8.96,22.409c2.108,0.905,4.386,1.374,6.682,1.382h306.637
		c9.429,0,17.067-7.646,17.067-17.067c0-2.313-0.469-4.599-1.382-6.724L384,384H128L87.04,479.676z"/>
	<path style="fill:#E6E7E8;" d="M479.676,425.003c8.661,3.712,18.697-0.299,22.409-8.96c0.913-2.125,1.382-4.412,1.382-6.724
		V102.682c-0.026-9.429-7.689-17.05-17.109-17.024c-2.296,0.009-4.565,0.478-6.682,1.382L384,128v256L479.676,425.003z"/>
	<path style="fill:#E6E7E8;" d="M32.324,425.003L128,384V128L32.324,87.04C23.663,83.328,13.628,87.339,9.916,96
		c-0.905,2.116-1.374,4.386-1.382,6.682v306.637c0,9.429,7.646,17.067,17.067,17.067C27.913,426.385,30.199,425.916,32.324,425.003z
		"/>
</g>
<path style="fill:#FFAF46;" d="M256,358.4c56.55,0,102.4-45.85,102.4-102.4S312.55,153.6,256,153.6S153.6,199.45,153.6,256
	S199.45,358.4,256,358.4z M324.267,256c-0.043,37.683-30.583,68.224-68.267,68.267C293.683,324.224,324.224,293.683,324.267,256z
	 M256,187.733c-37.683,0.043-68.224,30.583-68.267,68.267C187.776,218.317,218.317,187.776,256,187.733z"/>
<g>
	<path style="fill:#231F20;" d="M500.497,81.314c-7.185-4.745-16.273-5.564-24.183-2.159l-76.1,32.631l32.606-76.066
		c5.589-12.988-0.41-28.049-13.397-33.638C416.23,0.708,412.792,0,409.318,0H102.682c-14.14,0-25.6,11.452-25.609,25.591
		c0,3.473,0.7,6.903,2.074,10.095l32.64,76.1l-76.1-32.64C22.69,73.574,7.637,79.599,2.074,92.587C0.7,95.778,0,99.209,0,102.682
		v306.637c0,14.14,11.46,25.6,25.6,25.6c3.465,0,6.895-0.708,10.086-2.074l76.1-32.631L79.181,476.28
		c-5.589,12.988,0.41,28.049,13.397,33.638c3.191,1.374,6.63,2.082,10.103,2.082h306.637c14.14,0,25.6-11.452,25.609-25.591
		c0-3.473-0.7-6.903-2.074-10.095l-32.64-76.1l76.066,32.606c7.91,3.396,16.998,2.586,24.183-2.167
		c7.194-4.71,11.529-12.732,11.537-21.333V102.682C512.017,94.072,507.691,86.042,500.497,81.314z M136.533,375.467V136.533h238.933
		v238.933H136.533z M95.573,20.907c1.562-2.406,4.241-3.857,7.108-3.84h306.637c4.71,0,8.533,3.814,8.542,8.525
		c0,1.161-0.23,2.304-0.691,3.371l-38.793,90.505H133.623L94.831,28.962C93.687,26.325,93.969,23.288,95.573,20.907z
		 M29.013,417.161c-4.318,1.886-9.353-0.085-11.238-4.412c-0.469-1.075-0.708-2.253-0.708-3.43V102.682
		c0-4.71,3.823-8.533,8.533-8.533c1.178,0,2.338,0.247,3.413,0.708l90.453,38.767v244.753L29.013,417.161z M416.427,491.093
		c-1.562,2.415-4.25,3.866-7.125,3.84h-306.62c-4.71,0-8.533-3.814-8.542-8.525c0-1.161,0.23-2.304,0.691-3.371l38.793-90.505
		h244.753l38.793,90.505C418.313,485.675,418.031,488.713,416.427,491.093z M494.933,409.318c0.009,4.71-3.797,8.542-8.516,8.55
		c-1.178,0-2.355-0.239-3.43-0.708l-90.453-38.784V133.624l90.453-38.784c4.318-1.886,9.353,0.085,11.238,4.412
		c0.469,1.075,0.708,2.253,0.708,3.43V409.318z"/>
	<path style="fill:#231F20;" d="M256,145.067c-61.269,0-110.933,49.664-110.933,110.933S194.731,366.933,256,366.933
		S366.933,317.269,366.933,256C366.865,194.765,317.235,145.135,256,145.067z M256,349.867c-51.84,0-93.867-42.027-93.867-93.867
		S204.16,162.133,256,162.133S349.867,204.16,349.867,256C349.807,307.814,307.814,349.807,256,349.867z"/>
	<path style="fill:#231F20;" d="M264.533,187.733c0-4.71-3.823-8.533-8.533-8.533c-42.394,0.051-76.749,34.406-76.8,76.8
		c0,4.71,3.823,8.533,8.533,8.533c4.71,0,8.533-3.823,8.533-8.533c0.034-32.973,26.761-59.699,59.733-59.733
		C260.71,196.267,264.533,192.444,264.533,187.733z"/>
	<path style="fill:#231F20;" d="M315.733,256c-0.034,32.973-26.761,59.699-59.733,59.733c-4.71,0-8.533,3.823-8.533,8.533
		S251.29,332.8,256,332.8c42.394-0.051,76.749-34.406,76.8-76.8c0-4.71-3.823-8.533-8.533-8.533S315.733,251.29,315.733,256z"/>
</g>
<g>
</g>
<g>
</g>
<g>
</g>
<g>
</g>
<g>
</g>
<g>
</g>
<g>
</g>
<g>
</g>
<g>
</g>
<g>
</g>
<g>
</g>
<g>
</g>
<g>
</g>
<g>
</g>
<g>
</g>
</svg>
