<?xml version="1.0" encoding="iso-8859-1"?>
<!-- Generator: Adobe Illustrator 19.0.0, SVG Export Plug-In . SVG Version: 6.00 Build 0)  -->
<svg version="1.1" id="Capa_1" xmlns="http://www.w3.org/2000/svg" xmlns:xlink="http://www.w3.org/1999/xlink" x="0px" y="0px"
	 viewBox="0 0 512.006 512.006" style="enable-background:new 0 0 512.006 512.006;" xml:space="preserve">
<g>
	<path style="fill:#A97C50;" d="M440.58,203.535l-8.137-30.355l-103.884,27.805v47.422c18.841,14.133,22.662,40.863,8.529,59.703
		c-14.133,18.841-40.863,22.662-59.703,8.529c-18.841-14.133-22.662-40.863-8.529-59.703c2.422-3.233,5.297-6.107,8.529-8.529
		v-33.69l-133.284,35.728l39.362,146.913l0,0l0.375,1.399l288.368-77.273l-6.627-24.734l0,0L440.58,203.535z"/>
	<polygon style="fill:#A97C50;" points="144.101,250.445 143.734,249.072 8.523,205.829 87.997,502.41 183.446,397.375 
		144.075,250.453 	"/>
</g>
<polygon style="fill:#FFDA44;" points="144.101,250.445 144.075,250.453 183.446,397.375 183.463,397.358 "/>
<path style="fill:#FFAF46;" d="M439.07,197.923l1.51,5.612l24.982,93.248c27.327-7.224,43.618-35.234,36.385-62.561
	c-7.233-27.327-35.234-43.618-62.561-36.385C439.284,197.872,439.173,197.897,439.07,197.923z"/>
<polygon style="fill:#FFDA44;" points="465.562,296.783 465.562,296.783 440.58,203.535 "/>
<path style="fill:#FFAF46;" d="M302.972,239.877c9.237-0.034,18.227,2.96,25.587,8.529V9.592h-51.174v238.814
	C284.745,242.837,293.735,239.843,302.972,239.877z"/>
<path style="fill:#8B5E3C;" d="M277.385,248.406c-18.841,14.133-22.662,40.863-8.529,59.703
	c14.133,18.841,40.863,22.662,59.703,8.529c18.841-14.133,22.662-40.863,8.529-59.703c-2.422-3.233-5.297-6.107-8.529-8.529
	C313.395,237.037,292.549,237.037,277.385,248.406z"/>
<path d="M509.981,231.903c-7.702-28.632-35.259-47.268-64.702-43.771l-4.597-17.161c-1.22-4.546-5.894-7.25-10.448-6.03l0,0
	l-93.146,24.939V9.592c0-4.708-3.821-8.529-8.529-8.529h-51.174c-4.708,0-8.529,3.821-8.529,8.529v198.582l-122.418,32.82
	l-0.111-0.051L11.124,197.709c-4.486-1.433-9.288,1.049-10.721,5.535c-0.495,1.552-0.537,3.215-0.111,4.793L79.758,504.62
	c1.22,4.555,5.894,7.25,10.448,6.03c1.578-0.426,3.002-1.288,4.102-2.499l91.977-101.206l288.12-77.205
	c4.546-1.22,7.241-5.894,6.03-10.44l-4.606-17.16c27.285-11.651,41.835-41.613,34.116-70.262L509.981,231.903z M282.502,255.23
	c12.145-8.87,28.624-8.896,40.786-0.051l0.102,0.068c15.088,11.292,18.158,32.675,6.866,47.754
	c-11.292,15.088-32.675,18.158-47.754,6.866c-15.079-11.293-18.158-32.675-6.866-47.754c1.953-2.601,4.265-4.921,6.866-6.866
	L282.502,255.23z M285.914,18.121h34.116v216.11c-11.045-3.847-23.071-3.847-34.116,0V18.121z M92.193,485.113l-71.38-266.397
	l115.842,37.042l37.349,139.348L92.193,485.113z M189.877,388.326l-35.31-131.842l114.29-30.645v18.636
	c-21.067,18.841-22.866,51.191-4.026,72.258c18.841,21.067,51.191,22.866,72.258,4.026c21.067-18.841,22.866-51.191,4.026-72.258
	c-1.262-1.416-2.61-2.763-4.026-4.026v-36.939l89.325-23.881l35.327,131.851L189.877,388.326z M489.247,268.68
	c-4.179,7.258-10.414,13.118-17.911,16.845l-21.638-80.736c23.506-1.424,43.72,16.47,45.153,39.984
	c0.503,8.35-1.45,16.666-5.638,23.907H489.247L489.247,268.68z"/>
<g>
</g>
<g>
</g>
<g>
</g>
<g>
</g>
<g>
</g>
<g>
</g>
<g>
</g>
<g>
</g>
<g>
</g>
<g>
</g>
<g>
</g>
<g>
</g>
<g>
</g>
<g>
</g>
<g>
</g>
</svg>
